<svg width="1284" height="914" viewBox="0 0 1284 914" fill="none" xmlns="http://www.w3.org/2000/svg">
<g clip-path="url(#clip0_480_872)">
<rect width="1284" height="913.067" fill="black"/>
<g clip-path="url(#clip1_480_872)">
<path d="M311.522 33.0806L-124.099 104.117L-117.641 143.719L317.98 72.6825L311.522 33.0806Z" fill="#51D289"/>
<path d="M-95.357 285.91L-131.293 65.5392C-131.559 63.9054 -131.166 62.2327 -130.199 60.889C-129.232 59.5453 -127.771 58.6408 -126.137 58.3743L298.923 -10.9404C300.557 -11.2053 302.229 -10.8112 303.572 -9.84459C304.915 -8.87802 305.82 -7.41794 306.088 -5.78486L337.925 189.448L336.165 189.735L304.328 -5.49774C304.136 -6.66386 303.489 -7.70624 302.53 -8.39654C301.571 -9.08683 300.377 -9.36876 299.21 -9.18053L-125.85 60.1342C-127.017 60.3246 -128.061 60.9707 -128.751 61.9305C-129.442 62.8903 -129.723 64.0851 -129.533 65.2521L-93.5969 285.623L-95.357 285.91Z" fill="white"/>
<path d="M246.979 179.199C245.734 179.045 244.572 178.492 243.667 177.623C242.763 176.754 242.164 175.615 241.961 174.377L235.933 137.416C235.688 135.899 236.054 134.346 236.951 133.099C237.849 131.852 239.204 131.012 240.721 130.763L277.682 124.735C279.199 124.49 280.752 124.856 281.999 125.753C283.246 126.651 284.086 128.007 284.335 129.523L290.363 166.485C290.608 168.002 290.242 169.554 289.345 170.801C288.447 172.048 287.092 172.889 285.575 173.138L248.613 179.165C248.073 179.254 247.522 179.265 246.979 179.199Z" fill="#51D289"/>
<path d="M172.442 155.625C172.336 154.925 172.094 154.252 171.728 153.646C171.363 153.039 170.881 152.51 170.311 152.09C169.741 151.67 169.094 151.366 168.406 151.196C167.718 151.027 167.004 150.994 166.304 151.1L105.532 160.34L98.9872 161.335L138.726 166.202L145.271 165.207L167.926 161.765C169.339 161.548 170.607 160.78 171.454 159.629C172.301 158.478 172.656 157.038 172.442 155.625Z" fill="#CCCCCC"/>
<path d="M132.375 138.258C132.159 136.846 131.392 135.576 130.24 134.729C129.089 133.882 127.648 133.527 126.235 133.743L35.0468 147.602C33.772 147.8 32.61 148.447 31.7702 149.427C30.9304 150.406 30.4682 151.653 30.4669 152.943L53.2924 155.739L59.8459 154.745L127.858 144.407C129.272 144.189 130.541 143.42 131.388 142.267C132.235 141.114 132.59 139.673 132.375 138.258Z" fill="#CCCCCC"/>
<path d="M356.299 191.049L-71.1827 138.695C-72.8254 138.496 -74.4802 138.956 -75.7839 139.976C-77.0876 140.995 -77.9338 142.49 -78.1368 144.132L-109.137 397.257C-109.336 398.9 -108.876 400.555 -107.857 401.859C-106.838 403.162 -105.343 404.009 -103.7 404.212L323.781 456.565C325.424 456.764 327.079 456.304 328.382 455.285C329.686 454.266 330.532 452.771 330.735 451.128L361.735 198.003C361.935 196.36 361.474 194.706 360.455 193.402C359.436 192.098 357.941 191.252 356.299 191.049ZM328.965 450.912C328.821 452.085 328.217 453.153 327.285 453.882C326.354 454.61 325.172 454.938 323.998 454.795L-103.484 402.441C-104.657 402.297 -105.725 401.693 -106.453 400.762C-107.182 399.83 -107.51 398.648 -107.367 397.474L-76.3667 144.349C-76.2225 143.175 -75.6183 142.107 -74.6869 141.379C-73.7554 140.651 -72.573 140.322 -71.3995 140.465L356.082 192.819C357.255 192.963 358.324 193.567 359.052 194.499C359.78 195.43 360.109 196.613 359.965 197.786L328.965 450.912Z" fill="white"/>
<path d="M-4.83069 298.442C-6.94223 298.181 -8.86402 297.093 -10.1744 295.417C-11.4848 293.74 -12.0769 291.613 -11.8206 289.501L-8.89405 265.604C-8.63532 263.492 -7.54799 261.568 -5.87123 260.258C-4.19446 258.947 -2.06561 258.356 0.0469676 258.614C2.15955 258.873 4.08281 259.96 5.39368 261.637C6.70455 263.314 7.29565 265.443 7.03692 267.555L4.11033 291.452C3.84928 293.563 2.76132 295.485 1.08514 296.795C-0.591039 298.106 -2.71855 298.698 -4.83069 298.442Z" fill="#51D289"/>
<path d="M16.4108 301.043C14.2993 300.782 12.3775 299.694 11.0671 298.018C9.75667 296.342 9.16465 294.214 9.42087 292.102L12.3475 268.206C12.6062 266.093 13.6935 264.17 15.3703 262.859C17.0471 261.548 19.1759 260.957 21.2885 261.216C23.401 261.474 25.3243 262.562 26.6352 264.239C27.946 265.915 28.5371 268.044 28.2784 270.157L25.3518 294.053C25.0908 296.165 24.0028 298.087 22.3267 299.397C20.6505 300.707 18.5229 301.299 16.4108 301.043Z" fill="#51D289"/>
<path d="M37.6522 303.645C35.5406 303.384 33.6189 302.296 32.3085 300.619C30.9981 298.943 30.406 296.816 30.6622 294.704L33.5888 270.807C33.8475 268.695 34.9349 266.771 36.6116 265.46C38.2884 264.15 40.4172 263.558 42.5298 263.817C44.6424 264.076 46.5657 265.163 47.8765 266.84C49.1874 268.517 49.7785 270.646 49.5198 272.758L46.5932 296.655C46.3321 298.766 45.2442 300.688 43.568 301.998C41.8918 303.309 39.7643 303.901 37.6522 303.645Z" fill="#51D289"/>
<path d="M70.3989 307.655C68.2873 307.394 66.3656 306.306 65.0552 304.63C63.7448 302.954 63.1527 300.826 63.4089 298.714L66.3355 274.818C66.5942 272.705 67.6816 270.782 69.3584 269.471C71.0351 268.16 73.1639 267.569 75.2765 267.828C77.3891 268.086 79.3124 269.174 80.6232 270.851C81.9341 272.527 82.5252 274.656 82.2665 276.769L79.3399 300.665C79.0788 302.777 77.9909 304.698 76.3147 306.009C74.6385 307.319 72.511 307.911 70.3989 307.655Z" fill="#51D289"/>
<path d="M91.6404 310.257C89.5289 309.996 87.6072 308.908 86.2968 307.231C84.9863 305.555 84.3943 303.428 84.6505 301.316L87.5771 277.419C87.8358 275.307 88.9232 273.383 90.5999 272.072C92.2767 270.762 94.4055 270.17 96.5181 270.429C98.6307 270.688 100.554 271.775 101.865 273.452C103.176 275.129 103.767 277.258 103.508 279.37L100.581 303.267C100.32 305.378 99.2325 307.3 97.5563 308.61C95.8801 309.921 93.7526 310.513 91.6404 310.257Z" fill="#51D289"/>
<path d="M112.881 312.858C110.77 312.597 108.848 311.509 107.537 309.833C106.227 308.157 105.635 306.029 105.891 303.917L108.818 280.021C109.077 277.908 110.164 275.985 111.841 274.674C113.517 273.363 115.646 272.772 117.759 273.031C119.871 273.289 121.795 274.377 123.106 276.053C124.416 277.73 125.008 279.859 124.749 281.972L121.822 305.868C121.561 307.98 120.473 309.901 118.797 311.212C117.121 312.522 114.993 313.114 112.881 312.858Z" fill="#51D289"/>
<path d="M145.629 316.869C143.517 316.607 141.595 315.52 140.285 313.843C138.975 312.167 138.383 310.04 138.639 307.927L141.565 284.031C141.824 281.918 142.911 279.995 144.588 278.684C146.265 277.373 148.394 276.782 150.506 277.041C152.619 277.3 154.542 278.387 155.853 280.064C157.164 281.741 157.755 283.87 157.496 285.982L154.57 309.879C154.309 311.99 153.221 313.912 151.545 315.222C149.868 316.533 147.741 317.125 145.629 316.869Z" fill="#51D289"/>
<path d="M166.87 319.47C164.758 319.209 162.837 318.121 161.526 316.445C160.216 314.769 159.624 312.641 159.88 310.529L162.807 286.632C163.065 284.52 164.153 282.597 165.829 281.286C167.506 279.975 169.635 279.384 171.748 279.643C173.86 279.901 175.783 280.989 177.094 282.665C178.405 284.342 178.996 286.471 178.738 288.584L175.811 312.48C175.55 314.592 174.462 316.513 172.786 317.824C171.11 319.134 168.982 319.726 166.87 319.47Z" fill="#51D289"/>
<path d="M188.111 322.071C185.999 321.81 184.078 320.722 182.767 319.046C181.457 317.37 180.865 315.243 181.121 313.13L184.047 289.234C184.306 287.121 185.394 285.198 187.07 283.887C188.747 282.576 190.876 281.985 192.988 282.244C195.101 282.503 197.024 283.59 198.335 285.267C199.646 286.944 200.237 289.072 199.978 291.185L197.052 315.081C196.791 317.193 195.703 319.115 194.027 320.425C192.35 321.736 190.223 322.328 188.111 322.071Z" fill="#51D289"/>
<path d="M220.858 326.082C218.747 325.821 216.825 324.733 215.515 323.057C214.204 321.381 213.612 319.253 213.868 317.141L216.795 293.244C217.054 291.132 218.141 289.209 219.818 287.898C221.495 286.587 223.623 285.996 225.736 286.254C227.849 286.513 229.772 287.601 231.083 289.277C232.394 290.954 232.985 293.083 232.726 295.195L229.799 319.092C229.538 321.203 228.45 323.125 226.774 324.436C225.098 325.746 222.97 326.338 220.858 326.082Z" fill="#51D289"/>
<path d="M242.1 328.683C239.988 328.422 238.066 327.334 236.756 325.658C235.445 323.982 234.853 321.854 235.11 319.742L238.036 295.846C238.295 293.733 239.382 291.81 241.059 290.499C242.736 289.188 244.865 288.597 246.977 288.856C249.09 289.115 251.013 290.202 252.324 291.879C253.635 293.556 254.226 295.684 253.967 297.797L251.041 321.693C250.78 323.805 249.692 325.727 248.015 327.037C246.339 328.347 244.212 328.94 242.1 328.683Z" fill="#51D289"/>
<path d="M263.34 331.285C261.229 331.024 259.307 329.936 257.997 328.26C256.686 326.584 256.094 324.456 256.35 322.344L259.277 298.447C259.536 296.335 260.623 294.412 262.3 293.101C263.977 291.79 266.105 291.199 268.218 291.457C270.331 291.716 272.254 292.804 273.565 294.48C274.876 296.157 275.467 298.286 275.208 300.398L272.281 324.295C272.02 326.406 270.932 328.328 269.256 329.639C267.58 330.949 265.453 331.541 263.34 331.285Z" fill="#51D289"/>
<path d="M38.3164 393.709L-76.2453 379.678C-77.6648 379.505 -78.9571 378.774 -79.8379 377.647C-80.7187 376.521 -81.1159 375.09 -80.942 373.671C-80.7682 372.251 -80.0376 370.959 -78.9109 370.078C-77.7842 369.197 -76.3538 368.8 -74.9343 368.974L39.6274 383.004C41.0469 383.178 42.3392 383.909 43.22 385.035C44.1008 386.162 44.4979 387.593 44.3241 389.012C44.1502 390.432 43.4197 391.724 42.293 392.605C41.1663 393.485 39.7359 393.883 38.3164 393.709Z" fill="#E6E6E6"/>
<path d="M4.40462 366.199L-36.6976 361.166C-38.1171 360.992 -39.4094 360.261 -40.2902 359.134C-41.171 358.008 -41.5682 356.577 -41.3943 355.158C-41.2205 353.738 -40.4898 352.446 -39.3632 351.565C-38.2365 350.684 -36.8061 350.287 -35.3866 350.461L5.7156 355.495C7.1351 355.669 8.42742 356.399 9.30823 357.526C10.189 358.653 10.5862 360.083 10.4123 361.503C10.2385 362.922 9.5079 364.214 8.38124 365.095C7.25457 365.976 5.82412 366.373 4.40462 366.199Z" fill="#E6E6E6"/>
<path d="M353.925 244.461L-82.4063 191.023L-82.6231 192.793L353.709 246.231L353.925 244.461Z" fill="white"/>
</g>
<g clip-path="url(#clip2_480_872)">
<path d="M943.561 730.926V719.075H964.069V730.926C981.849 734.573 990.962 748.251 990.962 769.9V774.921H967.262V768.313C967.262 756.909 962.705 752.584 954.725 752.584C946.744 752.584 942.188 756.909 942.188 768.313C942.188 801.136 991.23 802.732 991.23 848.323C991.23 869.972 981.885 883.882 964.105 887.556V899.148H943.597V887.556C925.585 883.909 916.472 869.999 916.472 848.323V837.382H940.137V849.919C940.137 861.314 945.157 865.416 953.138 865.416C961.118 865.416 966.129 861.314 966.129 849.919C966.129 817.087 917.087 815.491 917.087 769.9C917.114 748.474 926.004 734.796 943.561 730.926Z" fill="#51D289" stroke="#263238" stroke-width="0.891667" stroke-miterlimit="10"/>
<path d="M1254.74 687.903V683.07H1263.12V687.903C1270.37 689.392 1274.1 694.974 1274.1 703.81V705.861H1264.38V703.186C1264.38 698.54 1262.53 696.766 1259.27 696.766C1256.02 696.766 1254.16 698.549 1254.16 703.186C1254.16 716.561 1274.16 717.239 1274.16 735.848C1274.16 744.684 1270.34 750.364 1263.08 751.853V756.597H1254.71V751.853C1247.36 750.364 1243.64 744.72 1243.64 735.848V731.389H1253.32V736.517C1253.32 741.171 1255.36 742.838 1258.62 742.838C1261.89 742.838 1263.92 741.171 1263.92 736.517C1263.92 723.142 1243.92 722.464 1243.92 703.855C1243.95 695.072 1247.58 689.49 1254.74 687.903Z" fill="#51D289" stroke="#263238" stroke-width="0.891667" stroke-miterlimit="10"/>
<path d="M1198.4 889.072V885.969H1203.75V889.072C1208.4 890.035 1210.79 893.61 1210.79 899.281V900.583H1204.55V898.844C1204.55 895.866 1203.36 894.725 1201.27 894.725C1199.18 894.725 1197.99 895.866 1197.99 898.844C1197.99 907.449 1210.82 907.859 1210.82 919.799C1210.82 925.47 1208.37 929.117 1203.69 930.071V933.111H1198.34V930.071C1193.62 929.117 1191.2 925.47 1191.2 919.799V916.936H1197.45V920.2C1197.45 923.187 1198.76 924.266 1200.85 924.266C1202.94 924.266 1204.26 923.187 1204.26 920.2C1204.26 911.604 1191.42 911.185 1191.42 899.246C1191.51 893.673 1193.83 890.088 1198.4 889.072Z" fill="#51D289" stroke="#263238" stroke-width="0.891667" stroke-miterlimit="10"/>
<path d="M1095.14 879.611V874.778H1103.51V879.611C1110.77 881.1 1114.49 886.682 1114.49 895.519V897.569H1104.77V894.894C1104.77 890.249 1102.92 888.474 1099.67 888.474C1096.41 888.474 1094.55 890.258 1094.55 894.894C1094.55 908.269 1114.55 908.947 1114.55 927.556C1114.55 936.393 1110.73 942.073 1103.47 943.562V948.305H1095.1V943.562C1087.75 942.073 1084.03 936.428 1084.03 927.556V923.098H1093.71V928.225C1093.71 932.879 1095.75 934.547 1099.06 934.547C1102.37 934.547 1104.36 932.879 1104.36 928.225C1104.36 914.85 1084.36 914.172 1084.36 895.563C1084.35 886.78 1087.98 881.198 1095.14 879.611Z" fill="#51D289" stroke="#263238" stroke-width="0.891667" stroke-miterlimit="10"/>
<path d="M1296.29 661.973C1297.08 657.515 1298.21 646.414 1291.47 640.975C1282.9 634.064 1276.82 646.503 1269.37 636.828C1261.91 627.154 1259.69 606.164 1237.63 606.44C1215.57 606.717 1213.83 619.147 1213.83 623.275C1213.83 627.404 1207.2 630.408 1205.8 630.408C1204.4 630.408 1196.68 626.842 1193.92 634.867C1191.15 642.892 1193.02 647.52 1188.64 647.689C1184.25 647.858 1178.83 641.866 1172.82 644.862C1166.81 647.858 1166.84 654.207 1164.36 656.454C1161.88 658.701 1157.72 654.796 1152.19 657.007C1148.85 658.344 1147.83 660.493 1147.56 661.982L1296.29 661.973Z" fill="white" stroke="#263238" stroke-width="0.891667" stroke-miterlimit="10"/>
<path d="M1288.15 669.044C1288.55 666.788 1289.13 661.198 1285.72 658.451C1281.4 654.965 1278.34 661.242 1274.57 656.365C1270.81 651.487 1269.7 640.894 1258.52 641.037C1247.35 641.18 1246.55 647.439 1246.55 649.535C1246.55 651.63 1243.21 653.155 1242.51 653.155C1241.81 653.155 1237.91 651.371 1236.52 655.384C1235.13 659.396 1236.07 661.768 1233.84 661.848C1231.61 661.929 1228.88 658.915 1225.86 660.422C1222.85 661.929 1222.85 665.139 1221.6 666.253C1220.35 667.368 1218.26 665.415 1215.47 666.53C1214.89 666.705 1214.37 667.031 1213.96 667.472C1213.55 667.914 1213.26 668.456 1213.13 669.044H1288.15Z" fill="white" stroke="#263238" stroke-width="0.891667" stroke-miterlimit="10"/>
<path d="M1035.82 623.275C1036.21 621.126 1036.71 615.785 1033.5 613.163C1029.38 609.838 1026.46 615.838 1022.87 611.166C1019.27 606.494 1018.21 596.382 1007.58 596.525C996.955 596.668 996.143 602.651 996.143 604.639C996.143 606.628 992.933 608.117 992.273 608.117C991.614 608.117 987.877 606.387 986.549 610.248C985.22 614.109 986.121 616.338 984.008 616.418C981.894 616.498 979.264 613.618 976.393 615.054C973.522 616.489 973.513 619.512 972.318 620.627C971.123 621.741 969.126 619.824 966.46 620.885C965.911 621.052 965.416 621.361 965.024 621.781C964.633 622.201 964.359 622.716 964.23 623.275H1035.82Z" fill="white" stroke="#263238" stroke-width="0.891667" stroke-miterlimit="10"/>
<path d="M961.939 673.832C962.161 672.566 962.482 669.374 960.565 667.867C958.131 665.897 956.401 669.436 954.324 666.69C952.246 663.944 951.577 657.961 945.291 658.041C939.005 658.121 938.532 661.661 938.532 662.838C938.532 664.015 936.642 664.88 936.25 664.88C935.857 664.88 933.664 663.855 932.87 666.137C932.077 668.42 932.621 669.704 931.372 669.784C930.124 669.864 928.572 668.126 926.914 668.982C925.255 669.838 925.211 671.657 924.506 672.263C923.802 672.869 922.616 671.79 921.047 672.424C920.722 672.521 920.428 672.702 920.197 672.95C919.965 673.197 919.803 673.502 919.727 673.832H961.939Z" fill="white" stroke="#263238" stroke-width="0.891667" stroke-miterlimit="10"/>
<path d="M1218.66 841.609C1218.66 841.609 1224.33 839.611 1227.33 839.611C1229.43 839.722 1231.48 840.291 1233.34 841.279L1233.67 848.947L1230 850.285C1230 850.285 1229.67 853.619 1231 854.618C1231.92 855.428 1232.61 856.464 1233.01 857.623C1234.79 862.973 1230.45 870.401 1227.86 874.832C1223.66 882.028 1220.83 882.902 1219.51 873.682C1218.98 870.035 1218.43 865.96 1219 862.286C1219.42 859.796 1219.08 857.234 1218 854.948L1216.33 843.276L1218.66 841.609Z" fill="#263238" stroke="#263238" stroke-width="0.891667" stroke-miterlimit="10"/>
<path d="M1131.28 805.594C1131.28 805.594 1146.96 857.623 1148.63 862.661C1149.74 865.897 1151.18 869.013 1152.92 871.961L1219.63 857.953L1218.62 841.609L1171.65 842.625L1174.32 802.277L1130.63 803.276L1131.28 805.594Z" fill="#263238" stroke="#263238" stroke-width="0.891667" stroke-miterlimit="10"/>
<path d="M1098.43 759.7C1098.43 759.7 1102.94 766.2 1106.46 768.706C1109.98 771.211 1116.96 765.701 1116.96 765.701L1104.48 730.685C1104.48 730.685 1098.93 752.237 1098.43 759.7Z" fill="#92E3A9" stroke="#263238" stroke-width="0.891667" stroke-miterlimit="10"/>
<path d="M1101.27 730.552L1112.27 767.903C1112.27 767.903 1112.61 772.246 1119.61 774.582C1126.61 776.918 1161.97 778.577 1166.97 777.578C1171.97 776.579 1176.3 770.908 1174.64 768.242C1172.97 765.576 1162.97 741.867 1162.97 741.867L1160.95 702.544C1160.95 702.544 1148.28 693.868 1142.27 693.538C1136.26 693.209 1125.27 694.876 1124.27 694.876C1123.27 694.876 1103.25 698.541 1102.59 705.21C1101.93 711.88 1101.27 730.552 1101.27 730.552Z" fill="white" stroke="#263238" stroke-width="0.891667" stroke-miterlimit="10"/>
<path d="M1117.39 715.839L1111.52 726.905L1108.34 712.442L1110.6 703.186L1127.07 691.22L1131.41 690.944C1132.83 692.261 1133.9 693.909 1134.52 695.741C1135.65 698.897 1135.41 701.608 1135.65 702.517C1135.89 703.427 1130.91 727.359 1130.91 727.359L1117.39 715.839Z" fill="white" stroke="#263238" stroke-width="0.891667" stroke-miterlimit="10"/>
<path d="M1112.94 701.207C1112.94 701.207 1104.61 731.889 1103.61 741.563C1102.61 751.238 1102.94 767.903 1102.94 767.903C1102.94 767.903 1094.91 760.904 1093.93 755.901C1092.95 750.899 1093.6 734.555 1092.93 732.888C1092.26 731.22 1086.26 726.557 1086.26 726.557C1086.26 726.557 1065.59 734.894 1063.25 736.561C1060.91 738.229 1053.91 743.561 1048.91 741.911C1043.91 740.262 1038.5 733.244 1041.34 725.567C1043.37 720.11 1061.92 715.901 1061.92 715.901L1079.59 706.566C1079.59 706.566 1089.6 692.887 1093.6 690.89C1097.61 688.893 1112.94 701.207 1112.94 701.207Z" fill="#92E3A9" stroke="#263238" stroke-width="0.891667" stroke-miterlimit="10"/>
<path d="M1064.65 724.987C1065.38 725.766 1066.02 726.628 1066.56 727.555" stroke="#263238" stroke-width="0.891667" stroke-miterlimit="10"/>
<path d="M1053.24 721.216C1055.03 720.953 1056.85 721.051 1058.6 721.502C1060.35 721.954 1061.99 722.751 1063.43 723.846" stroke="#263238" stroke-width="0.891667" stroke-miterlimit="10"/>
<path d="M1112.94 701.207C1112.94 701.207 1110.7 699.423 1107.7 697.283L1099.6 711.211L1101.94 716.561L1097.94 723.561L1102.61 762.25L1102.88 762.776C1102.88 757.07 1102.96 747.85 1103.61 741.572C1104.61 731.889 1112.94 701.207 1112.94 701.207Z" fill="#92E3A9" stroke="#263238" stroke-width="0.891667" stroke-miterlimit="10"/>
<path d="M1080.11 720.146L1078.26 718.22" stroke="#263238" stroke-width="0.891667" stroke-miterlimit="10"/>
<path d="M1086.26 726.557L1082.13 722.241" stroke="#263238" stroke-width="0.891667" stroke-miterlimit="10"/>
<path d="M1100.41 657.729C1100.41 657.729 1095.55 669.321 1096.01 670.712C1096.47 672.103 1093.92 676.062 1094.15 679.067C1094.39 682.072 1093 696.695 1093.92 697.854C1094.85 699.013 1094.62 699.245 1097.63 699.477C1100.65 699.709 1106.91 699.709 1106.91 699.709L1118.74 718.96L1130.33 696.231L1131.03 691.595C1131.03 691.595 1137.52 681.617 1138.21 678.371C1138.91 675.126 1140.07 663.989 1137.52 660.047C1134.97 656.106 1128.94 650.765 1120.12 648.679C1114.81 647.424 1109.25 647.665 1104.07 649.374C1104.07 649.374 1105.92 644.506 1102.91 646.36C1099.9 648.215 1098.33 655.874 1100.41 657.729Z" fill="white" stroke="#263238" stroke-width="0.891667" stroke-miterlimit="10"/>
<path d="M1096.75 668.197C1096.75 668.197 1098.58 668.393 1100.66 670.712" stroke="#263238" stroke-width="0.891667" stroke-miterlimit="10"/>
<path d="M1101.57 672.566L1097.17 684.631L1101.57 685.094" stroke="#263238" stroke-width="0.891667" stroke-miterlimit="10"/>
<path d="M1109.91 675.732C1109.75 676.873 1109.15 677.738 1108.58 677.649C1108.01 677.56 1107.69 676.579 1107.85 675.437C1108.01 674.296 1108.61 673.44 1109.18 673.52C1109.75 673.601 1110.12 674.59 1109.91 675.732Z" fill="#263238"/>
<path d="M1098.78 673.859C1098.64 675.001 1098.07 675.874 1097.49 675.803C1096.91 675.732 1096.6 674.751 1096.71 673.601C1096.83 672.45 1097.43 671.585 1098 671.657C1098.57 671.728 1098.93 672.709 1098.78 673.859Z" fill="#263238"/>
<path d="M1106.91 699.709L1118.51 697.622L1122.91 692.754L1114.1 710.846L1106.91 699.709Z" fill="#263238" stroke="#263238" stroke-width="0.891667" stroke-miterlimit="10"/>
<path d="M1104.69 671.478C1104.69 671.478 1109.69 669.321 1114.57 671.175" stroke="#263238" stroke-width="0.891667" stroke-miterlimit="10"/>
<path d="M1097.63 687.644L1102.27 688.108" stroke="#263238" stroke-width="0.891667" stroke-miterlimit="10"/>
<path d="M1106.91 679.067L1111.09 679.298" stroke="#263238" stroke-width="0.891667" stroke-miterlimit="10"/>
<path d="M1097.63 676.98L1095.78 676.284" stroke="#263238" stroke-width="0.891667" stroke-miterlimit="10"/>
<path d="M1138.22 678.371C1138.92 675.126 1140.08 663.989 1137.53 660.047C1134.98 656.106 1128.95 650.765 1120.13 648.679C1114.82 647.424 1109.26 647.665 1104.08 649.374C1104.08 649.374 1105.93 644.506 1102.92 646.36C1099.91 648.215 1098.28 655.874 1100.37 657.729C1100.37 657.729 1104.31 661.902 1106.4 661.902C1108.48 661.902 1114.75 661.01 1117.99 661.01C1121.23 661.01 1122.63 663.097 1122.86 664.256C1123.09 665.415 1118.68 669.606 1119.38 671.907C1120.08 674.207 1123.78 674.466 1123.78 674.466C1123.78 674.466 1121.47 681.884 1123.09 681.884C1124.71 681.884 1125.18 682.58 1125.87 680.725C1126.57 678.871 1129.59 675.161 1130.98 676.784C1132.37 678.407 1132.14 682.812 1131.44 684.666C1130.75 686.521 1126.34 686.985 1126.34 687.68C1126.34 688.376 1130.05 691.398 1130.05 691.398L1131.39 690.979C1132.89 688.679 1137.63 681.118 1138.22 678.371Z" fill="#263238" stroke="#263238" stroke-width="0.891667" stroke-miterlimit="10"/>
<path d="M1067.62 733.512C1067.62 733.512 1070.89 737.908 1071.6 739.049C1072.1 740.014 1072.2 741.133 1071.88 742.17C1071.74 742.74 1066.63 745.3 1065.21 745.87C1063.79 746.441 1063.93 742.74 1064.93 741.751C1065.92 740.761 1066.77 737.908 1066.77 737.908C1066.77 737.908 1066.06 734.073 1066.06 733.226C1066.06 732.379 1067.62 733.512 1067.62 733.512Z" fill="white" stroke="#263238" stroke-width="0.891667" stroke-miterlimit="10"/>
<path d="M1064.59 728.224C1064.59 728.224 1050.25 734.894 1050.25 736.891C1050.25 738.889 1050.91 743.231 1052.92 744.56C1054.94 745.888 1068.26 741.885 1068.93 739.896C1069.6 737.908 1066.58 727.886 1064.59 728.224Z" fill="white" stroke="#263238" stroke-width="0.891667" stroke-miterlimit="10"/>
<path d="M1061.08 730.275C1061.08 730.275 1064.77 736.811 1065.62 741.644" stroke="#263238" stroke-width="0.891667" stroke-miterlimit="10"/>
<path d="M1056.54 732.513C1056.54 732.513 1060.24 739.192 1061.23 743.213" stroke="#263238" stroke-width="0.891667" stroke-miterlimit="10"/>
<path d="M1052.43 734.787L1056.54 744.158" stroke="#263238" stroke-width="0.891667" stroke-miterlimit="10"/>
<path d="M1233.5 775.487L1209.55 781.437L1213.17 796.001L1237.12 790.051L1233.5 775.487Z" stroke="#263238" stroke-width="2.675" stroke-miterlimit="10"/>
<path d="M1257.99 779.172L1188.13 795.481C1185.26 796.152 1183.47 799.024 1184.14 801.897L1193.91 843.724C1194.58 846.596 1197.45 848.381 1200.32 847.711L1270.19 831.401C1273.06 830.73 1274.84 827.858 1274.17 824.986L1264.41 783.159C1263.74 780.286 1260.87 778.501 1257.99 779.172Z" fill="#A6A6A6" stroke="#263238" stroke-width="0.891667" stroke-miterlimit="10"/>
<path d="M1217.66 768.242L1214 778.577L1217.66 787.921L1223.66 787.583L1224.33 785.246L1231.34 779.914L1228.33 766.245L1217.66 768.242Z" fill="white" stroke="#263238" stroke-width="0.891667" stroke-miterlimit="10"/>
<path d="M1213.66 763.909L1216.33 770.578L1228.33 766.245L1226 760.235L1213.66 763.909Z" fill="white" stroke="#263238" stroke-width="0.891667" stroke-miterlimit="10"/>
<path d="M1174.47 837.65H1169.38V977.169H1174.47V837.65Z" fill="white" stroke="#263238" stroke-width="0.891667" stroke-miterlimit="10"/>
<path d="M1188.15 819.263H975.884V838.006H1188.15V819.263Z" fill="white" stroke="#263238" stroke-width="0.891667" stroke-miterlimit="10"/>
<path d="M1184.28 819.263H972.023V838.006H1184.28V819.263Z" fill="white" stroke="#263238" stroke-width="0.891667" stroke-miterlimit="10"/>
<path d="M1060.91 819.263H1048.91V838.006H1060.91V819.263Z" fill="#92E3A9" stroke="#263238" stroke-width="0.891667" stroke-miterlimit="10"/>
<path d="M1010.89 819.263H998.889V838.006H1010.89V819.263Z" fill="#92E3A9" stroke="#263238" stroke-width="0.891667" stroke-miterlimit="10"/>
<path d="M1110.94 819.263H1098.93V838.006H1110.94V819.263Z" fill="#92E3A9" stroke="#263238" stroke-width="0.891667" stroke-miterlimit="10"/>
<path d="M1160.96 819.263H1148.96V838.006H1160.96V819.263Z" fill="#92E3A9" stroke="#263238" stroke-width="0.891667" stroke-miterlimit="10"/>
<path d="M1177.19 840.173H1166.67L1167.73 826.495H1176.13L1177.19 840.173Z" fill="#263238" stroke="#263238" stroke-width="0.891667" stroke-miterlimit="10"/>
<path d="M992.479 837.65H987.396V977.169H992.479V837.65Z" fill="white" stroke="#263238" stroke-width="0.891667" stroke-miterlimit="10"/>
<path d="M995.198 840.173H984.685L985.737 826.495H994.146L995.198 840.173Z" fill="#263238" stroke="#263238" stroke-width="0.891667" stroke-miterlimit="10"/>
<path d="M1047.71 837.444L1045.03 841.778C1045.03 841.778 1012.68 835.108 1013.01 838.443C1013.34 841.778 1027.69 851.818 1033.02 855.447C1036.18 857.631 1039.53 859.529 1043.03 861.118L1042.03 862.785L1050.05 868.135C1050.05 868.135 1055.4 863.133 1057.05 859.13C1058.7 855.126 1058.39 846.789 1058.39 846.789L1047.71 837.444Z" fill="#263238" stroke="#263238" stroke-width="0.891667" stroke-miterlimit="10"/>
<path d="M1175.31 775.581L1157.29 775.242C1157.29 775.242 1125.61 768.572 1110.93 765.576C1096.24 762.58 1084.58 761.903 1082.91 763.57C1081.24 765.237 1045.39 838.773 1045.39 838.773L1060.4 850.115L1099.42 792.754C1099.42 792.754 1135.98 813.931 1152.92 813.931C1169.87 813.931 1175.94 809.598 1180.27 799.254C1184.61 788.911 1181.61 778.247 1181.61 778.247L1175.31 775.581Z" fill="#263238" stroke="#263238" stroke-width="0.891667" stroke-miterlimit="10"/>
<path d="M1133.95 692.201C1133.95 692.201 1139.3 738.568 1141.29 747.235C1143.28 755.902 1146.64 761.234 1147.96 762.241C1149.28 763.249 1178.98 777.578 1178.98 777.578C1178.98 777.578 1168.28 751.898 1168.97 750.231C1169.67 748.563 1169.3 723.882 1169.3 723.882L1196.62 727.6L1212.29 766.281L1227.3 760.931L1211.9 713.226C1211.4 711.672 1210.55 710.252 1209.42 709.076C1208.29 707.899 1206.9 706.998 1205.36 706.441L1171.93 694.234L1164.63 689.847C1162.88 688.801 1160.83 688.385 1158.81 688.67L1133.95 692.201Z" fill="#92E3A9" stroke="#263238" stroke-width="0.891667" stroke-miterlimit="10"/>
<path d="M1159.03 721.956L1169.3 723.882L1160.3 725.763" stroke="#263238" stroke-width="0.891667" stroke-miterlimit="10"/>
<path d="M1164.1 691.568C1163.16 692.882 1162.51 694.377 1162.18 695.956C1161.86 697.535 1161.86 699.166 1162.2 700.743C1163.46 705.817 1163.46 697.899 1166.95 694.412" stroke="#263238" stroke-width="0.891667" stroke-miterlimit="10"/>
<path d="M1139.62 716.213L1147.96 710.863L1141.87 691.042L1133.95 692.165C1133.95 692.165 1139.3 738.532 1141.29 747.199C1143.28 755.866 1146.64 761.198 1147.96 762.206L1148.63 719.851L1139.62 716.213Z" fill="#92E3A9" stroke="#263238" stroke-width="0.891667" stroke-miterlimit="10"/>
<path d="M1150.29 764.239C1150.29 764.239 1200.32 767.244 1203.32 767.244C1206.33 767.244 1204.99 770.578 1203.32 776.579C1201.65 782.58 1195.98 789.589 1195.98 789.589L1150.29 764.239Z" fill="#92E3A9" stroke="#263238" stroke-width="0.891667" stroke-miterlimit="10"/>
<path d="M1183.41 740.583C1183.41 740.583 1160.06 743.65 1151.88 744.97C1143.7 746.289 1130.66 739.548 1128.61 737.07C1126.84 734.699 1125.24 732.208 1123.82 729.615L1125.71 722.91L1117.39 715.839L1114.52 721.251L1120.85 729.615C1120.85 729.615 1122.91 742.714 1132.94 749.713C1142.97 756.713 1145.27 758.068 1157.81 755.135C1170.36 752.201 1187.06 753.004 1187.06 753.004L1191.85 744.872L1183.41 740.583Z" fill="#263238" stroke="#263238" stroke-width="0.891667" stroke-miterlimit="10"/>
<path d="M1050.82 693.109C1067.41 685.973 1075.07 666.746 1067.93 650.162C1060.8 633.579 1041.57 625.919 1024.98 633.054C1008.4 640.189 1000.74 659.417 1007.88 676.001C1015.01 692.584 1034.24 700.244 1050.82 693.109Z" fill="white" stroke="#263238" stroke-width="0.891667" stroke-miterlimit="10"/>
<path d="M1035.99 642.526V639.379H1041.47V642.526C1046.19 643.498 1048.6 647.136 1048.6 652.887V654.225H1042.3V652.441C1042.3 649.41 1041.08 648.26 1038.96 648.26C1036.84 648.26 1035.63 649.41 1035.63 652.441C1035.63 661.162 1048.66 661.59 1048.66 673.708C1048.66 679.468 1046.17 683.159 1041.45 684.131V687.225H1035.99V684.131C1031.2 683.159 1028.79 679.468 1028.79 673.708V670.801H1035.08V674.136C1035.08 677.158 1036.42 678.255 1038.54 678.255C1040.66 678.255 1041.99 677.158 1041.99 674.136C1041.99 665.406 1028.97 664.978 1028.97 652.861C1028.98 647.19 1031.33 643.56 1035.99 642.526Z" fill="#263238"/>
<path d="M1079.46 664.907C1079.39 665.489 1079.15 666.038 1078.77 666.487C1078.39 666.936 1077.89 667.266 1077.33 667.439C1076.77 667.611 1076.17 667.618 1075.61 667.458C1075.04 667.299 1074.53 666.979 1074.15 666.539C1073.76 666.098 1073.51 665.555 1073.42 664.975C1073.33 664.395 1073.42 663.801 1073.66 663.267C1073.9 662.732 1074.29 662.278 1074.78 661.96C1075.28 661.643 1075.85 661.474 1076.44 661.474C1077.29 661.529 1078.09 661.922 1078.66 662.565C1079.23 663.209 1079.51 664.051 1079.46 664.907Z" fill="white" stroke="#263238" stroke-width="0.891667" stroke-miterlimit="10"/>
<path d="M1086.33 666.521C1086.29 666.99 1086.11 667.439 1085.83 667.811C1085.54 668.183 1085.15 668.463 1084.7 668.617C1084.26 668.771 1083.78 668.792 1083.32 668.677C1082.86 668.563 1082.45 668.318 1082.13 667.972C1081.81 667.626 1081.6 667.195 1081.52 666.73C1081.44 666.266 1081.5 665.789 1081.68 665.357C1081.87 664.925 1082.18 664.557 1082.58 664.298C1082.97 664.04 1083.43 663.901 1083.9 663.899C1084.57 663.927 1085.2 664.219 1085.65 664.71C1086.11 665.201 1086.35 665.852 1086.33 666.521Z" fill="white" stroke="#263238" stroke-width="0.891667" stroke-miterlimit="10"/>
</g>
</g>
<defs>
<clipPath id="clip0_480_872">
<rect width="1284" height="913.067" fill="white"/>
</clipPath>
<clipPath id="clip1_480_872">
<rect width="505.727" height="461.268" fill="white" transform="translate(-115.928 -62) rotate(6.98223)"/>
</clipPath>
<clipPath id="clip2_480_872">
<rect width="445.833" height="445.833" fill="white" transform="translate(879.183 565.317)"/>
</clipPath>
</defs>
</svg>
