<svg width="756" height="982" viewBox="0 0 756 982" fill="none" xmlns="http://www.w3.org/2000/svg">
<rect width="756" height="982" fill="#FCF8D9"/>
<g clip-path="url(#clip0_316_769)">
<mask id="mask0_316_769" style="mask-type:luminance" maskUnits="userSpaceOnUse" x="-71" y="326" width="800" height="550">
<path d="M729 326H-71V876H729V326Z" fill="white"/>
</mask>
<g mask="url(#mask0_316_769)">
<path d="M602.114 570.937C602.114 570.937 600.096 592.704 595.052 604.052C590.008 615.411 578.9 624.867 577.891 629.601C576.882 634.335 574.865 675.966 574.865 675.966" stroke="#363636" stroke-linecap="round" stroke-linejoin="round"/>
<path d="M574.865 688.254V706.238" stroke="#363636" stroke-linecap="round" stroke-linejoin="round"/>
<path d="M92.3765 589.664C92.3765 589.664 94.394 622.779 117.608 638.86" stroke="#363636" stroke-linecap="round" stroke-linejoin="round"/>
<path d="M91.3677 580.208C91.3677 580.208 91.3677 566.957 94.394 557.501" stroke="#363636" stroke-linecap="round" stroke-linejoin="round"/>
<path d="M719.017 829.774C698.284 833.94 698.284 860.301 683.489 857.528C668.682 854.755 701.253 832.547 708.662 803.401C716.06 774.254 686.457 754.831 677.575 774.254C668.693 793.678 673.134 840.867 667.209 838.093C661.284 835.32 671.65 740.942 647.961 721.519C624.272 702.084 603.54 724.292 610.949 764.543C618.347 804.793 650.918 840.867 639.079 843.651C627.24 846.424 613.906 802.02 596.142 783.978C578.378 765.935 563.571 779.812 575.41 806.185C587.249 832.559 642.036 874.19 642.036 874.19C642.036 874.19 630.348 877.323 608.653 860.371C586.959 843.419 576.767 843.732 572.488 850.509C568.209 857.285 577.416 864.374 586.298 867.147" stroke="#363636" stroke-linecap="round" stroke-linejoin="round"/>
<path d="M88.3413 727.054C88.3413 727.054 116.599 731.788 114.581 743.135C112.564 754.495 77.2331 753.543 48.9756 768.685C20.7181 783.827 46.958 802.751 40.9053 820.724C34.8526 838.697 -34.7998 863.306 -34.7998 863.306" stroke="#363636" stroke-linecap="round" stroke-linejoin="round"/>
<path d="M304.975 511.948C313.509 509.581 322.762 506.669 330.136 501.923C344.897 492.443 342.16 488.046 333.881 474.726C310.32 436.842 392.507 426.527 415.697 424.381" stroke="#363636" stroke-linecap="round" stroke-linejoin="round"/>
<path d="M671.273 385.458C673.406 381.025 676.189 376.198 680.978 373.46C686.126 370.513 691.576 369.353 696.516 367.786" stroke="#363636" stroke-linecap="round" stroke-linejoin="round"/>
<path d="M528.727 409.239C528.727 409.239 611.761 415.725 639.45 402.753C651.787 396.975 656.101 387.321 658.942 377.354" stroke="#363636" stroke-linecap="round" stroke-linejoin="round"/>
<path d="M502.557 426.864C502.557 426.864 494.568 435.845 494.568 444.083C494.568 452.321 497.757 463.541 499.357 474.772C500.957 486.004 490.568 506.216 490.568 506.216C490.568 506.216 504.54 496.238 507.334 491.248C510.129 486.259 512.923 477.023 512.923 477.023C512.923 477.023 520.112 471.779 520.912 465.792C521.712 459.805 523.312 456.057 523.312 448.573C523.312 441.089 517.724 423.128 502.545 426.864H502.557Z" fill="white"/>
<path d="M414.723 512.957L454.646 519.699L463.435 510.718L457.046 507.724C457.046 507.724 420.312 510.718 414.723 512.969V512.957Z" fill="white"/>
<path d="M316.5 784.674V890.214H333.267V771.191C333.267 771.191 326.878 779.429 316.5 784.662V784.674Z" fill="white"/>
<path d="M306.111 651.426C306.111 651.426 314.1 679.122 310.9 691.096C307.711 703.071 302.911 713.548 298.922 718.038C294.933 722.529 275.766 739.747 271.766 739.747C271.766 739.747 294.922 737.496 309.3 726.276C323.678 715.045 335.656 697.084 337.244 681.362C338.844 665.64 330.855 647.678 330.855 647.678H312.488L306.099 651.426H306.111Z" fill="white"/>
<path d="M253.411 507.713L225.466 514.454C225.466 514.454 278.967 526.428 302.922 548.892L329.278 544.401C329.278 544.401 311.711 520.453 253.411 507.724V507.713Z" fill="white"/>
<path d="M504.157 505.462C504.157 505.462 507.346 509.21 508.946 516.693C510.546 524.177 510.546 527.171 510.546 527.171C510.546 527.171 518.535 524.92 535.302 530.164C552.069 535.409 569.635 536.906 559.258 539.145C548.88 541.384 532.102 536.151 545.68 542.139C559.258 548.126 568.035 542.893 571.236 551.119C574.424 559.357 575.224 587.796 569.635 589.293C564.047 590.789 548.08 583.306 548.08 590.047C548.08 596.788 560.858 599.027 559.258 608.762C557.658 618.497 556.069 624.484 549.68 631.968C543.291 639.452 534.502 631.214 527.324 629.717C520.135 628.22 530.513 635.704 532.113 646.936C533.713 658.167 522.536 664.897 522.536 664.897C522.536 664.897 510.558 646.182 512.158 654.42C513.758 662.658 518.547 670.884 517.747 676.129C516.947 681.373 503.369 677.625 500.98 669.387C498.58 661.149 485.906 646.518 484.213 653.665C482.521 660.824 492.203 673.124 493.003 682.116C493.803 691.096 485.014 699.334 485.014 699.334L474.636 698.58H468.247C468.247 698.58 466.647 708.315 457.869 715.799C449.08 723.283 444.291 724.037 453.88 728.527C463.458 733.018 487.425 734.514 508.981 734.514C530.536 734.514 552.103 719.547 556.092 715.056C560.081 710.566 556.892 697.838 556.892 688.114C556.892 678.391 566.47 632.722 566.47 632.722C566.47 632.722 588.025 596.788 589.626 584.814C591.226 572.84 584.906 548.764 582.436 545.144C579.967 541.524 574.447 533.17 564.07 526.428C553.692 519.687 512.158 506.97 512.158 506.97C512.158 506.97 515.347 504.719 512.158 500.983C508.969 497.235 505.769 496.493 505.769 496.493L504.169 505.473L504.157 505.462Z" fill="white"/>
<g style="mix-blend-mode:multiply">
<path d="M421.02 510.59C421.02 510.59 404.531 511.275 398.119 521.056C391.707 530.837 387.695 559.404 386.883 568.431C386.083 577.458 370.836 599.26 374.847 606.024" stroke="#363636" stroke-linecap="round" stroke-linejoin="round"/>
<path d="M362.812 664.34C362.812 664.34 362.812 679.145 367.751 684.703C372.691 690.261 375.648 692.106 387.498 692.106C399.348 692.106 398.363 686.548 398.363 686.548" stroke="#363636" stroke-linecap="round" stroke-linejoin="round"/>
<path d="M404.16 699.509C404.16 699.509 399.545 747.08 400.705 763.29C401.853 779.51 407.627 889.68 407.627 889.68H559.861C559.861 889.68 562.168 808.692 562.168 774.104C562.168 739.515 554.098 708.153 554.098 708.153C554.098 708.153 466.45 728.69 404.172 699.509H404.16Z" fill="#363636"/>
<path d="M506.418 508.27C506.418 508.27 525.237 511.403 537.401 516.287C549.564 521.172 577.346 529.317 579.955 541.524C582.564 553.73 577.346 578.154 572.14 605.026C566.934 631.887 559.2 652.528 558.249 667.705C556.162 700.773 559.721 708.872 553.912 714.917C546.549 722.575 514.836 735.269 475.749 732.008C436.673 728.748 404.879 714.105 400.542 697.002C396.206 679.911 405.749 645.021 400.542 596.985C395.336 548.961 405.401 513.015 421.043 510.567C436.673 508.131 478.358 506.495 487.043 506.495C495.727 506.495 506.441 508.247 506.441 508.247L506.418 508.27Z" fill="white" stroke="#363636" stroke-linecap="round" stroke-linejoin="round"/>
<path d="M458.182 548.369L465.209 567.189C465.209 567.189 446.135 650.95 440.105 667.891C436.174 678.96 433.519 694.044 432.151 703.175C431.386 708.28 432.51 713.467 435.316 717.899L440.94 726.787C442.853 729.815 447.144 730.639 450.181 728.551L459.353 722.239C464.328 718.816 467.377 713.455 467.655 707.677L474.242 570.009L490.301 553.068L474.242 529.538L458.182 548.358V548.369Z" fill="#C2B7BC"/>
<path d="M464.606 506.599C464.606 506.599 461.429 510.312 456.675 518.492C451.921 526.672 445.938 552.396 450.703 554.623C455.457 556.851 475.285 544.215 475.285 544.215C475.285 544.215 479.251 562.049 488.77 560.564C498.29 559.079 514.141 526.37 513.352 512.25C512.564 498.129 507.798 495.158 499.867 493.662C491.936 492.177 464.606 506.587 464.606 506.587V506.599Z" fill="white" stroke="#363636" stroke-linecap="round" stroke-linejoin="round"/>
<path d="M464.177 510.022C464.177 510.022 468.931 518.202 469.731 527.113C470.322 533.738 472.908 540.491 476.074 540.491C479.239 540.491 504.621 508.525 504.621 502.584C504.621 496.644 503.033 482.511 503.033 482.511C503.033 482.511 472.897 507.782 464.177 510.01V510.022Z" fill="white" stroke="#363636" stroke-linecap="round" stroke-linejoin="round"/>
<g style="mix-blend-mode:multiply">
<path d="M500.725 500.426C500.725 500.426 491.437 515.232 483.077 520.453C474.717 525.674 469.14 522.193 469.14 522.193L462.936 509.651C462.936 509.651 492.365 505.648 500.725 500.415V500.426Z" fill="#C2B7BC"/>
</g>
<path d="M456.779 412.035C452.095 414.472 446.842 417.35 445.033 422.397C440.279 435.647 441.218 459.828 443.711 476.199C445.08 485.215 448.523 503.234 462.936 509.662C481.883 518.121 502.221 501.285 510.164 486.247C519.95 467.718 519.208 443.015 512.772 423.673C510.442 416.665 505.978 412.082 498.557 409.784C485.338 405.689 469.221 405.561 456.791 412.035H456.779Z" fill="white" stroke="#363636" stroke-linecap="round" stroke-linejoin="round"/>
<path d="M460.177 453.667C460.177 453.667 459.492 471.686 459.492 478.126C459.492 484.565 462.24 485.853 466.357 485.853C470.473 485.853 476.653 478.126 476.653 478.126" fill="white"/>
<path d="M460.177 453.667C460.177 453.667 459.492 471.686 459.492 478.126C459.492 484.565 462.24 485.853 466.357 485.853C470.473 485.853 476.653 478.126 476.653 478.126" stroke="#363636" stroke-linecap="round" stroke-linejoin="round"/>
<path d="M476.039 447.54C476.039 447.54 483.367 446.577 490.046 450.766L476.039 447.54Z" fill="white"/>
<path d="M476.039 447.54C476.039 447.54 483.367 446.577 490.046 450.766" stroke="#363636" stroke-linecap="round" stroke-linejoin="round"/>
<path d="M458.762 442.597C458.762 442.597 451.805 441.449 447.909 445.951L458.762 442.597Z" fill="white"/>
<path d="M458.762 442.597C458.762 442.597 451.805 441.449 447.909 445.951" stroke="#363636" stroke-linecap="round" stroke-linejoin="round"/>
<path d="M475.842 462.752C475.842 462.752 479.715 466.024 489.71 463.958L475.842 462.752Z" fill="white"/>
<path d="M475.842 462.752C475.842 462.752 479.715 466.024 489.71 463.958" stroke="#363636" stroke-linecap="round" stroke-linejoin="round"/>
<path d="M446.448 460.106C446.448 460.106 451.26 465.258 456.744 462.032L446.448 460.106Z" fill="white"/>
<path d="M446.448 460.106C446.448 460.106 451.26 465.258 456.744 462.032" stroke="#363636" stroke-linecap="round" stroke-linejoin="round"/>
<path d="M512.761 423.673C512.761 423.673 514.431 397.671 496.574 391.881" stroke="#363636" stroke-miterlimit="10"/>
<path d="M517.167 424.068C517.167 424.068 502.743 395.107 477.349 392.531" stroke="#363636" stroke-miterlimit="10" stroke-linecap="round"/>
<path d="M524.727 434.359C522.663 425.344 517.179 424.056 517.179 424.056C517.179 424.056 512.703 414.634 505.131 407.348C505.259 407.348 505.375 407.325 505.502 407.325C505.502 407.325 504.215 405.967 501.432 404.192C499.705 402.892 497.849 401.767 495.89 400.897C494.591 400.317 493.177 399.876 491.669 399.551C485.674 397.451 477.581 395.745 467.053 395.745C439.584 395.745 424.487 408.613 423.107 420.204C421.738 431.784 438.899 420.204 436.835 422.13C434.771 424.056 421.727 431.784 430.655 437.573C436.209 441.17 442.517 439.79 447.955 436.784C450.877 435.172 460.107 430.472 461.765 427.897C460.536 429.799 458.345 432.839 455.365 435.636C450.553 440.138 446.436 441.426 446.436 441.426C446.436 441.426 454.68 442.064 462.913 436.274C471.157 430.484 482.822 424.694 493.814 424.694C504.807 424.694 502.743 433.71 502.743 433.71C502.743 433.71 495.194 442.075 499.995 446.577C504.795 451.079 508.239 451.079 508.923 453.017C509.607 454.943 508.239 460.095 510.291 460.095C512.343 460.095 511.659 450.441 515.103 450.441C518.547 450.441 522.652 456.231 522.652 456.231C522.652 456.231 526.768 443.363 524.716 434.348L524.727 434.359Z" fill="#363636"/>
<path d="M508.934 462.682C508.934 462.682 511.683 448.526 519.231 448.526C526.779 448.526 524.043 457.542 521.295 466.546C518.547 475.561 511.683 476.838 511.683 476.838" fill="white"/>
<path d="M508.934 462.682C508.934 462.682 511.683 448.526 519.231 448.526C526.779 448.526 524.043 457.542 521.295 466.546C518.547 475.561 511.683 476.838 511.683 476.838" stroke="#363636" stroke-linecap="round" stroke-linejoin="round"/>
<path d="M553.483 546.687C553.483 546.687 524.692 560.46 520.066 577.319C515.439 594.178 499.194 628.278 492.736 633.604C492.736 633.604 483.552 640.844 493.095 645.729C502.65 650.614 511.335 669.341 514.802 678.287C518.28 687.244 531.986 683.253 532.426 676.755C532.867 670.258 539.604 660.871 545.946 657.17C552.289 653.468 578.459 614.251 586.947 591.915C595.435 569.579 583.329 542.754 575.537 542.289" fill="white"/>
<path d="M553.483 546.687C553.483 546.687 524.692 560.46 520.066 577.319C515.439 594.178 499.194 628.278 492.736 633.604C492.736 633.604 483.552 640.844 493.095 645.729C502.65 650.614 511.335 669.341 514.802 678.287C518.28 687.244 531.986 683.253 532.426 676.755C532.867 670.258 539.604 660.871 545.946 657.17C552.289 653.468 578.459 614.251 586.947 591.915C595.435 569.579 583.329 542.754 575.537 542.289" stroke="#363636" stroke-linecap="round" stroke-linejoin="round"/>
<path d="M360.759 558.974L373.282 624.101C373.734 626.666 376.308 628.418 379.057 628.023C381.967 627.605 383.892 624.972 383.254 622.28L370.349 557.222C369.78 554.844 367.554 553.985 364.992 554.38C362.325 554.797 360.319 556.468 360.759 558.963V558.974Z" fill="white" stroke="#363636" stroke-linecap="round" stroke-linejoin="round"/>
<path d="M378.013 590.244C378.013 590.244 363.82 584.199 360.806 585C357.791 585.812 356.933 594.27 356.933 594.27C356.933 594.27 357.362 597.902 358.649 602.74C359.936 607.579 364.238 614.842 368.969 617.256C373.7 619.681 380.587 619.681 383.161 617.256C385.735 614.831 384.019 605.56 384.019 605.56" fill="white"/>
<path d="M378.013 590.244C378.013 590.244 363.82 584.199 360.806 585C357.791 585.812 356.933 594.27 356.933 594.27C356.933 594.27 357.362 597.902 358.649 602.74C359.936 607.579 364.238 614.842 368.969 617.256C373.7 619.681 380.587 619.681 383.161 617.256C385.735 614.831 384.019 605.56 384.019 605.56" stroke="#363636" stroke-linecap="round" stroke-linejoin="round"/>
<path d="M384.901 581.368C384.901 581.368 377.746 581.217 377.746 586.485C377.746 591.753 377.12 601.116 378.999 602.88C380.877 604.632 387.741 604.632 388.994 598.784C389.747 595.257 390.142 590.511 390.35 587.297C390.524 584.489 388.507 581.832 385.538 581.414C385.318 581.38 385.109 581.368 384.901 581.368Z" fill="white" stroke="#363636" stroke-linecap="round" stroke-linejoin="round"/>
<path d="M341.627 531.847L348.26 567.027C349.929 576.402 359.321 582.795 369.351 581.368C379.984 579.86 387.022 570.229 384.692 560.39L376.668 525.465C374.604 516.786 366.464 513.63 357.107 515.092C347.378 516.612 340.015 522.727 341.639 531.847H341.627Z" fill="white" stroke="#363636" stroke-linecap="round" stroke-linejoin="round"/>
<g style="mix-blend-mode:multiply">
<path d="M359.959 514.802C359.02 514.849 358.069 514.941 357.095 515.092C347.367 516.612 340.004 522.727 341.627 531.847L348.26 567.027C349.929 576.402 359.321 582.795 369.351 581.368C370.882 581.148 372.331 580.753 373.688 580.219L359.959 514.814V514.802Z" fill="#C2B7BC"/>
</g>
<path d="M375.798 523.203C377.224 529.515 370.615 536.163 361.049 538.066C351.472 539.969 342.566 536.384 341.14 530.083C339.714 523.771 346.323 517.123 355.889 515.22C365.467 513.317 374.372 516.902 375.798 523.203Z" fill="white" stroke="#363636" stroke-linecap="round" stroke-linejoin="round"/>
<path d="M376.853 595.698C378.941 601.302 376.332 607.242 371.033 608.971C365.734 610.7 359.762 607.567 357.675 601.963C355.588 596.359 358.197 590.418 363.496 588.689C368.795 586.961 374.766 590.093 376.853 595.698Z" fill="#363636"/>
<path d="M354.602 598.355L309.59 631.4C309.59 631.4 305.497 635.751 310.355 635.727C315.225 635.704 363.403 606.894 363.403 606.894C363.403 606.894 370.383 597.728 354.591 598.343L354.602 598.355Z" fill="#363636"/>
<path d="M483.518 679.54C484.828 673.089 472.989 655.255 465.36 652.354C465.36 652.354 451.932 645.021 440.778 642.724C429.623 640.427 408.879 638.361 392.043 630.019L375.207 621.665C375.207 621.665 372.841 605.212 371.45 600.234C370.047 595.257 366.8 591.799 359.008 591.335C351.205 590.871 341.894 587.042 339.134 589.328C336.363 591.613 337.604 599.028 337.604 599.028L326.461 605.27C321.938 605.003 316.292 604.643 314.436 604.643C311.445 604.643 307.955 609.783 312.442 611.187C316.929 612.591 331.389 613.52 331.389 613.52C338.508 621.375 345.129 630.251 352.689 637.665C356.794 641.691 363.867 642.283 367.508 645.683C367.508 645.683 411.616 679.227 425.681 686.27C449.984 698.43 476.908 700.367 482.335 697.42C487.762 694.485 482.242 685.991 483.553 679.552L483.518 679.54Z" fill="white" stroke="#363636" stroke-linecap="round" stroke-linejoin="round"/>
<g style="mix-blend-mode:multiply">
<path d="M461.046 652.482C461.046 652.482 467.957 666.278 469.406 675.827C470.856 685.365 461.406 691.503 453.405 690.818C445.404 690.133 416.323 679.911 416.323 679.911C416.323 679.911 443.433 696.492 462.855 696.956C482.289 697.408 486.846 700.367 489.756 694.229C492.666 688.091 491.205 667.647 482.486 660.836C473.755 654.025 464.304 646.193 461.035 652.494L461.046 652.482Z" fill="#C2B7BC"/>
</g>
<path d="M524.948 678.763C524.669 677.44 524.461 676.106 524.287 674.771C523.602 669.457 520.715 655.87 508.842 644.963C493.733 631.075 482.057 632.107 478.393 633.616C474.717 635.124 467.087 642.457 467.087 642.457C467.087 642.457 454.414 645.161 461.046 652.482C467.679 659.803 478.532 670.838 479.599 681.292C480.665 691.746 479.854 703.813 492.585 700.24C505.317 696.677 507.276 694.194 518.106 692.245C526.524 690.737 525.724 682.406 524.936 678.763H524.948Z" fill="white" stroke="#363636" stroke-linecap="round" stroke-linejoin="round"/>
<path d="M333.708 601.534C333.708 601.534 347.9 601.534 349.628 603.147C351.344 604.759 351.773 605.966 351.773 605.966" stroke="#363636" stroke-linecap="round" stroke-linejoin="round"/>
<path d="M337.58 599.016C337.58 599.016 343.169 597.902 350.057 597.902C356.944 597.902 360.377 599.921 360.377 599.921" stroke="#363636" stroke-linecap="round" stroke-linejoin="round"/>
<path d="M473.523 645.88C473.523 645.88 496.783 654.907 497.594 667.682" stroke="#363636" stroke-linecap="round" stroke-linejoin="round"/>
<path d="M500.006 675.2C500.006 675.2 500.806 682.719 500.806 686.478" stroke="#363636" stroke-linecap="round" stroke-linejoin="round"/>
<path d="M466.763 492.501C466.763 492.501 476.491 495.101 482.741 488.591L466.763 492.501Z" fill="white"/>
<path d="M466.763 492.501C466.763 492.501 476.491 495.101 482.741 488.591" stroke="#363636" stroke-linecap="round" stroke-linejoin="round"/>
<path d="M452.605 740.594C452.605 740.594 456.06 781.68 459.527 785.996C462.983 790.324 471.065 795.731 471.065 795.731" stroke="white" stroke-linecap="round" stroke-linejoin="round"/>
<path d="M492.968 779.51C492.968 779.51 474.52 802.217 474.52 807.613C474.52 813.008 475.668 888.601 475.668 888.601" stroke="white" stroke-miterlimit="10" stroke-linecap="round"/>
<path d="M551.79 724.374C551.79 724.374 536.798 743.832 502.198 743.832L499.96 735.118" stroke="white" stroke-linecap="round" stroke-linejoin="round"/>
<path d="M333.499 764.728H124.472V890.562H333.499V764.728Z" fill="white" stroke="#363636" stroke-miterlimit="10"/>
<path d="M152.347 890.562V804.782C152.347 801.173 149.228 798.249 145.378 798.249C141.529 798.249 138.41 801.173 138.41 804.782V890.562H152.347Z" fill="#51D289" stroke="#363636" stroke-miterlimit="10"/>
<path d="M308.419 890.562V813.495C308.419 809.887 305.299 806.963 301.45 806.963C297.6 806.963 294.481 809.887 294.481 813.495V890.562H308.419Z" fill="#51D289" stroke="#363636" stroke-miterlimit="10"/>
<path d="M183.005 890.562V815.236C183.005 811.627 179.886 808.703 176.036 808.703C172.186 808.703 169.067 811.627 169.067 815.236V890.562H183.005Z" fill="#51D289" stroke="#363636" stroke-miterlimit="10"/>
<path d="M223.924 890.562V821.791C223.924 816.965 219.75 813.066 214.613 813.066C209.465 813.066 205.302 816.976 205.302 821.791V890.562H223.924Z" fill="#51D289" stroke="#363636" stroke-miterlimit="10"/>
<path d="M273.157 890.562V820.921C273.157 816.094 268.983 812.196 263.846 812.196C258.698 812.196 254.536 816.106 254.536 820.921V890.562H273.157Z" fill="#51D289" stroke="#363636" stroke-miterlimit="10"/>
<path d="M333.499 764.728H124.472V890.562H333.499V764.728Z" stroke="#363636" stroke-miterlimit="10"/>
<path d="M228.991 801.742C286.709 801.742 333.499 785.17 333.499 764.728C333.499 744.287 286.709 727.715 228.991 727.715C171.273 727.715 124.484 744.287 124.484 764.728C124.484 785.17 171.273 801.742 228.991 801.742Z" fill="white" stroke="#363636" stroke-linecap="round" stroke-linejoin="round"/>
<path d="M228.991 801.742C286.709 801.742 333.499 785.17 333.499 764.728C333.499 744.287 286.709 727.715 228.991 727.715C171.273 727.715 124.484 744.287 124.484 764.728C124.484 785.17 171.273 801.742 228.991 801.742Z" stroke="#363636" stroke-linecap="round" stroke-linejoin="round"/>
<g style="mix-blend-mode:multiply">
<path d="M222.486 790.22C264.861 790.22 299.212 779.197 299.212 765.599C299.212 752.001 264.861 740.977 222.486 740.977C180.112 740.977 145.761 752.001 145.761 765.599C145.761 779.197 180.112 790.22 222.486 790.22Z" fill="#C2B7BC"/>
</g>
<path d="M337.314 671.801C337.314 661.706 335.366 653.085 331.702 645.567C331.157 645.184 329.29 643.896 326.066 641.656C322.182 638.965 318.309 639.301 318.309 639.301C318.309 639.301 315.723 634.277 313.138 631.666C310.552 629.067 305.381 630.529 305.381 630.529C305.381 630.529 303.444 627.965 300.847 625.366C298.261 622.767 289.205 622.744 289.205 622.744C289.205 622.744 285.97 614.633 282.735 610.166C281.297 608.182 280.52 607.219 280.08 606.743C268.125 601.859 261.412 601.128 245.99 596.997C211.564 587.703 203.134 583.503 203.134 571.981C203.134 563.418 211.216 557.721 227.727 558.858C228.11 558.882 228.493 558.928 228.887 558.963L270.444 592.82L296.591 586.334L330.67 543.566C308.894 525.604 282.897 513.932 251.277 508.455V487.709L212.63 485.041L186.483 491.527L192.745 503.826L193.313 508.061C156.776 515.359 134.293 539.087 134.293 573.814C134.293 620.899 174.691 636.528 227.032 651.333C260.403 660.883 268.832 663.11 268.832 673.971C268.832 683.845 259 689.101 240.378 687.813C211.923 685.852 185.219 674.458 160.638 654.652L134.49 661.138L115.857 702.015L145.077 714.987L147.79 713.095C167.258 724.896 189.278 733.064 212.619 737.601V759.333L222.092 759.983L225.118 768.476L251.266 761.99L251.764 741.232C304.163 740.757 337.337 715.753 337.337 671.766L337.314 671.801Z" fill="white" stroke="#363636" stroke-linecap="round" stroke-linejoin="round"/>
<g style="mix-blend-mode:multiply">
<path d="M330.635 543.577L294.898 552.454L270.421 592.82L296.568 586.334L330.635 543.577Z" fill="#C2B7BC"/>
</g>
<g style="mix-blend-mode:multiply">
<path d="M225.107 768.511L251.242 762.025V741.267L223.24 744.4L225.107 768.511Z" fill="#C2B7BC"/>
</g>
<g style="mix-blend-mode:multiply">
<path d="M217.373 615.376C220.156 614.506 248.031 613.636 248.031 613.636L265.771 611.942L270.328 604.922L276.416 605.328C266.595 601.685 259.753 600.698 245.978 596.997C211.552 587.703 203.122 583.503 203.122 571.981C203.122 565.565 207.668 560.75 216.898 559.23C187.863 548.926 154.573 568.303 164.418 590.117C174.633 612.754 214.578 616.246 217.373 615.376Z" fill="#C2B7BC"/>
</g>
<g style="mix-blend-mode:multiply">
<path d="M240.355 687.836C211.9 685.875 185.196 674.481 160.614 654.675L134.467 661.161C134.467 661.161 143.048 682.429 175.561 695.494C208.074 708.559 243.381 699.845 248.019 696.364C251.138 694.032 253.828 689.739 255.266 687.163C251.185 687.987 246.199 688.231 240.343 687.836H240.355Z" fill="#C2B7BC"/>
</g>
<path d="M337.314 671.801C337.314 661.706 335.366 653.085 331.702 645.567C331.157 645.184 329.29 643.896 326.066 641.657C322.182 638.965 318.309 639.301 318.309 639.301C318.309 639.301 315.723 634.277 313.138 631.666C310.552 629.067 305.381 630.529 305.381 630.529C305.381 630.529 303.444 627.965 300.847 625.366C298.261 622.767 289.205 622.744 289.205 622.744C289.205 622.744 285.97 614.633 282.735 610.166C281.297 608.182 280.52 607.219 280.08 606.743C268.125 601.859 261.412 601.128 245.99 596.997C211.564 587.703 203.134 583.503 203.134 571.981C203.134 563.418 211.216 557.721 227.727 558.858C228.11 558.882 228.493 558.928 228.887 558.963L270.444 592.82L296.591 586.334L330.67 543.566C308.894 525.604 282.897 513.932 251.277 508.455V487.709L212.63 485.041L186.483 491.527L192.745 503.826L193.313 508.061C156.776 515.359 134.293 539.087 134.293 573.814C134.293 620.899 174.691 636.528 227.032 651.333C260.403 660.883 268.832 663.11 268.832 673.971C268.832 683.845 259 689.101 240.378 687.813C211.923 685.852 185.219 674.458 160.638 654.652L134.49 661.138L115.857 702.015L145.077 714.987L147.79 713.095C167.258 724.896 189.278 733.064 212.619 737.601V759.333L222.092 759.983L225.118 768.476L251.266 761.99L251.764 741.232C304.163 740.757 337.337 715.753 337.337 671.766L337.314 671.801Z" stroke="#363636" stroke-linecap="round" stroke-linejoin="round"/>
<path d="M299.931 648.154C296.046 645.462 292.174 645.799 292.174 645.799C292.174 645.799 289.588 640.775 287.002 638.164C284.416 635.565 279.245 637.027 279.245 637.027C279.245 637.027 277.309 634.463 274.711 631.864C272.125 629.265 263.07 629.242 263.07 629.242C263.07 629.242 259.835 621.131 256.599 616.664C255.162 614.68 254.385 613.717 253.944 613.241C241.99 608.356 235.276 607.625 219.854 603.495C185.428 594.201 176.998 590.001 176.998 578.479C176.998 569.916 185.08 564.219 201.592 565.356C223.379 566.853 247.961 576.124 270.444 592.832L304.522 550.063C282.747 532.102 256.75 520.43 225.13 514.953V494.207L186.483 491.538V512.284C138.711 514.257 108.146 539.806 108.146 580.312C108.146 627.397 148.544 643.026 200.884 657.831C234.256 667.38 242.685 669.608 242.685 680.468C242.685 690.342 232.852 695.598 214.231 694.311C185.776 692.35 159.072 680.956 134.49 661.149L96.5508 701.017C121.144 723.132 152.405 737.473 186.483 744.098V759.658L225.13 768.488V747.742C277.819 747.429 311.201 722.401 311.201 678.275C311.201 668.181 309.253 659.56 305.589 652.041C305.044 651.658 303.177 650.37 299.954 648.131L299.931 648.154Z" fill="#51D289" stroke="#363636" stroke-linecap="round" stroke-linejoin="round"/>
<path d="M299.931 648.154C296.046 645.462 292.174 645.799 292.174 645.799C292.174 645.799 289.588 640.775 287.002 638.164C284.416 635.565 279.245 637.027 279.245 637.027C279.245 637.027 277.309 634.463 274.711 631.864C272.125 629.265 263.07 629.242 263.07 629.242C263.07 629.242 259.835 621.131 256.599 616.664C255.162 614.68 254.385 613.717 253.944 613.241C241.99 608.356 235.276 607.625 219.854 603.495C185.428 594.201 176.998 590.001 176.998 578.479C176.998 569.916 185.08 564.219 201.592 565.356C223.379 566.853 247.961 576.124 270.444 592.832L304.522 550.063C282.747 532.102 256.75 520.43 225.13 514.953V494.207L186.483 491.538V512.284C138.711 514.257 108.146 539.806 108.146 580.312C108.146 627.397 148.544 643.026 200.884 657.831C234.256 667.38 242.685 669.608 242.685 680.468C242.685 690.342 232.852 695.598 214.231 694.31C185.776 692.35 159.072 680.956 134.49 661.149L96.5508 701.017C121.144 723.132 152.405 737.473 186.483 744.098V759.658L225.13 768.488V747.742C277.819 747.429 311.201 722.401 311.201 678.275C311.201 668.181 309.253 659.56 305.589 652.041C305.044 651.658 303.177 650.37 299.954 648.131L299.931 648.154Z" stroke="#363636" stroke-linecap="round" stroke-linejoin="round"/>
<path d="M304.499 550.063L321.127 545.643" stroke="#363636" stroke-linecap="round" stroke-linejoin="round"/>
<path d="M225.107 494.207L242.697 490.865" stroke="#363636" stroke-linecap="round" stroke-linejoin="round"/>
<path d="M225.107 514.953L242.697 511.762" stroke="#363636" stroke-linecap="round" stroke-linejoin="round"/>
<path d="M253.921 613.241L265.771 611.942L270.386 607.625L280.068 606.755" stroke="#363636" stroke-linecap="round" stroke-linejoin="round"/>
<path d="M305.554 652.064L309.59 648.7L315.747 647.98H319.585H328.049L331.702 645.578" stroke="#363636" stroke-linecap="round" stroke-linejoin="round"/>
<path d="M326.438 605.258C326.438 605.258 339.285 605.653 343.366 607.184" stroke="#363636" stroke-linecap="round" stroke-linejoin="round"/>
<path d="M410.201 726.358C410.201 726.358 422.051 750.422 442.784 764.311" stroke="white" stroke-linecap="round" stroke-linejoin="round"/>
<path d="M525.724 584.744C525.724 584.744 532.635 570.856 553.367 577.342" stroke="#363636" stroke-linecap="round" stroke-linejoin="round"/>
<path d="M527.707 633.801C527.707 633.801 542.514 638.431 537.586 658.794" stroke="#363636" stroke-linecap="round" stroke-linejoin="round"/>
<path d="M359.507 646.727C359.507 646.727 362.812 668.042 371.694 676.372C380.575 684.703 395.394 671.743 395.394 671.743" stroke="#363636" stroke-linecap="round" stroke-linejoin="round"/>
<path d="M309.335 636.853C309.335 637.746 308.558 638.477 307.607 638.477C306.656 638.477 305.879 637.758 305.879 636.853C305.879 635.948 306.656 635.229 307.607 635.229C308.558 635.229 309.335 635.959 309.335 636.853Z" fill="white" stroke="#363636" stroke-linecap="round" stroke-linejoin="round"/>
<path d="M301.948 608.994C303.305 608.994 304.407 610.027 304.407 611.303C304.407 612.58 303.305 613.612 301.948 613.612C300.592 613.612 299.49 612.58 299.49 611.303C299.49 610.027 300.592 608.994 301.948 608.994Z" fill="white" stroke="#363636" stroke-linecap="round" stroke-linejoin="round"/>
<path d="M293.751 636.041C295.107 636.041 296.209 637.073 296.209 638.35C296.209 639.626 295.107 640.659 293.751 640.659C292.394 640.659 291.292 639.626 291.292 638.35C291.292 637.073 292.394 636.041 293.751 636.041Z" fill="white" stroke="#363636" stroke-linecap="round" stroke-linejoin="round"/>
<path d="M305.195 620.864C305.195 621.758 304.418 622.489 303.467 622.489C302.517 622.489 301.74 621.769 301.74 620.864C301.74 619.959 302.517 619.24 303.467 619.24C304.418 619.24 305.195 619.959 305.195 620.864Z" fill="white" stroke="#363636" stroke-linecap="round" stroke-linejoin="round"/>
<path d="M278.294 620.864C278.294 621.758 277.517 622.489 276.566 622.489C275.616 622.489 274.839 621.769 274.839 620.864C274.839 619.959 275.616 619.24 276.566 619.24C277.517 619.24 278.294 619.959 278.294 620.864Z" fill="white" stroke="#363636" stroke-linecap="round" stroke-linejoin="round"/>
<path d="M463.562 739.91L468.212 778.223C468.212 778.223 465.719 785.938 459.527 785.996" stroke="white" stroke-linecap="round" stroke-linejoin="round"/>
<path d="M522.083 742.521C522.083 742.521 525.794 756.456 545.309 764.287" stroke="white" stroke-linecap="round" stroke-linejoin="round"/>
<path d="M490.498 735.129L493.408 745.352" stroke="white" stroke-linecap="round" stroke-linejoin="round"/>
</g>
</g>
</g>
<path d="M94.832 182.414C92.5819 182.414 90.6562 181.945 89.0549 181.006C87.4674 180.067 86.2457 178.735 85.3898 177.01C84.5339 175.27 84.106 173.207 84.106 170.818C84.106 168.941 84.3269 167.071 84.7686 165.207C85.2103 163.33 85.8661 161.563 86.7357 159.906C87.6192 158.236 88.7167 156.759 90.0281 155.475C91.3395 154.177 92.8649 153.156 94.6043 152.41C96.3574 151.665 98.3176 151.292 100.485 151.292C101.921 151.292 103.232 151.43 104.419 151.706C105.62 151.982 106.745 152.403 107.794 152.969L106.407 155.889C105.606 155.461 104.723 155.109 103.757 154.833C102.804 154.543 101.714 154.398 100.485 154.398C98.787 154.398 97.2616 154.709 95.9088 155.33C94.5559 155.937 93.3688 156.779 92.3472 157.856C91.3395 158.919 90.4974 160.148 89.821 161.542C89.1584 162.936 88.6546 164.42 88.3094 165.994C87.9781 167.554 87.8125 169.134 87.8125 170.736C87.8125 173.386 88.482 175.484 89.821 177.03C91.1739 178.563 93.0444 179.329 95.4325 179.329C96.6335 179.329 97.7931 179.212 98.9112 178.977C100.043 178.742 101.141 178.445 102.204 178.086V181.151C101.127 181.538 100.016 181.841 98.8698 182.062C97.7379 182.297 96.3919 182.414 94.832 182.414ZM114.131 182.414C112.902 182.414 111.825 182.117 110.9 181.524C109.975 180.93 109.258 180.054 108.747 178.894C108.236 177.734 107.981 176.319 107.981 174.649C107.981 172.979 108.153 171.371 108.498 169.824C108.857 168.278 109.361 166.843 110.01 165.518C110.659 164.192 111.439 163.033 112.35 162.039C113.275 161.045 114.31 160.272 115.456 159.72C116.602 159.167 117.837 158.891 119.162 158.891C120.184 158.891 121.067 159.085 121.813 159.471C122.572 159.858 123.2 160.368 123.697 161.003C124.208 161.625 124.608 162.287 124.898 162.991H125.105L126.43 159.306H129.06L124.256 182H121.502L122.123 177.61H121.958C121.337 178.438 120.626 179.218 119.825 179.95C119.024 180.682 118.148 181.275 117.195 181.731C116.243 182.186 115.221 182.414 114.131 182.414ZM115.249 179.557C116.312 179.557 117.361 179.17 118.396 178.397C119.445 177.61 120.384 176.554 121.212 175.229C122.054 173.89 122.696 172.385 123.138 170.715C123.359 169.9 123.504 169.155 123.573 168.479C123.656 167.788 123.697 167.146 123.697 166.553C123.697 165.131 123.317 163.985 122.558 163.116C121.813 162.232 120.791 161.79 119.494 161.79C118.569 161.79 117.699 162.025 116.885 162.494C116.07 162.95 115.332 163.592 114.669 164.42C114.02 165.235 113.461 166.187 112.992 167.278C112.522 168.354 112.157 169.528 111.894 170.798C111.646 172.068 111.522 173.372 111.522 174.711C111.522 176.299 111.846 177.507 112.495 178.335C113.144 179.149 114.062 179.557 115.249 179.557ZM131.069 182L137.943 149.78H141.381L134.527 182H131.069ZM151.113 182.414C149.429 182.414 147.951 182.097 146.681 181.462C145.425 180.813 144.445 179.86 143.741 178.604C143.051 177.348 142.706 175.788 142.706 173.924C142.706 172.309 142.878 170.756 143.223 169.265C143.582 167.775 144.1 166.401 144.776 165.145C145.453 163.889 146.274 162.791 147.241 161.852C148.207 160.914 149.304 160.189 150.533 159.678C151.775 159.154 153.128 158.891 154.591 158.891C155.571 158.891 156.545 158.988 157.511 159.181C158.491 159.361 159.375 159.623 160.161 159.968L159.188 162.867C158.608 162.591 157.925 162.343 157.138 162.122C156.351 161.901 155.509 161.79 154.612 161.79C153.356 161.79 152.21 162.108 151.175 162.743C150.153 163.378 149.27 164.261 148.524 165.393C147.793 166.511 147.227 167.795 146.826 169.245C146.426 170.694 146.226 172.24 146.226 173.883C146.226 175.056 146.433 176.071 146.847 176.927C147.261 177.769 147.855 178.418 148.628 178.873C149.415 179.329 150.353 179.557 151.444 179.557C152.452 179.557 153.397 179.419 154.281 179.142C155.178 178.866 156.055 178.535 156.911 178.149V181.089C156.151 181.475 155.282 181.793 154.301 182.041C153.335 182.29 152.272 182.414 151.113 182.414ZM167.864 182.414C166.719 182.414 165.718 182.2 164.862 181.772C164.006 181.344 163.343 180.716 162.874 179.888C162.418 179.046 162.191 178.017 162.191 176.803C162.191 176.195 162.232 175.609 162.315 175.043C162.412 174.463 162.515 173.862 162.626 173.241L165.628 159.306H169.107L166.021 173.635C165.911 174.228 165.821 174.76 165.752 175.229C165.697 175.684 165.669 176.092 165.669 176.451C165.669 177.431 165.918 178.197 166.415 178.749C166.926 179.287 167.733 179.557 168.838 179.557C169.873 179.557 170.957 179.205 172.088 178.501C173.234 177.797 174.29 176.692 175.257 175.188C176.237 173.669 176.982 171.702 177.493 169.286L179.605 159.306H183.001L178.197 182H175.36L175.919 177.61H175.733C175.208 178.328 174.573 179.06 173.828 179.805C173.082 180.537 172.22 181.158 171.24 181.669C170.259 182.166 169.134 182.414 167.864 182.414ZM185.444 182L192.319 149.78H195.756L188.902 182H185.444ZM203.211 182.414C201.982 182.414 200.905 182.117 199.98 181.524C199.055 180.93 198.338 180.054 197.827 178.894C197.316 177.734 197.061 176.319 197.061 174.649C197.061 172.979 197.233 171.371 197.578 169.824C197.937 168.278 198.441 166.843 199.09 165.518C199.739 164.192 200.519 163.033 201.43 162.039C202.355 161.045 203.39 160.272 204.536 159.72C205.682 159.167 206.917 158.891 208.242 158.891C209.264 158.891 210.147 159.085 210.893 159.471C211.652 159.858 212.28 160.368 212.777 161.003C213.288 161.625 213.688 162.287 213.978 162.991H214.185L215.51 159.306H218.14L213.336 182H210.582L211.203 177.61H211.038C210.416 178.438 209.706 179.218 208.905 179.95C208.104 180.682 207.228 181.275 206.275 181.731C205.323 182.186 204.301 182.414 203.211 182.414ZM204.329 179.557C205.392 179.557 206.441 179.17 207.476 178.397C208.525 177.61 209.464 176.554 210.292 175.229C211.134 173.89 211.776 172.385 212.218 170.715C212.439 169.9 212.584 169.155 212.653 168.479C212.736 167.788 212.777 167.146 212.777 166.553C212.777 165.131 212.397 163.985 211.638 163.116C210.893 162.232 209.871 161.79 208.574 161.79C207.649 161.79 206.779 162.025 205.965 162.494C205.15 162.95 204.412 163.592 203.749 164.42C203.1 165.235 202.541 166.187 202.072 167.278C201.602 168.354 201.237 169.528 200.974 170.798C200.726 172.068 200.602 173.372 200.602 174.711C200.602 176.299 200.926 177.507 201.575 178.335C202.224 179.149 203.142 179.557 204.329 179.557ZM226.65 182.414C225.146 182.414 223.89 182.055 222.882 181.337C221.888 180.606 221.391 179.356 221.391 177.589C221.391 177.162 221.419 176.699 221.474 176.202C221.529 175.691 221.619 175.167 221.743 174.628L224.414 161.935H220.915L221.246 160.341L225.015 158.891L227.499 154.087H229.549L228.411 159.306H234.25L233.711 161.935H227.893L225.201 174.67C225.104 175.056 225.015 175.471 224.932 175.912C224.863 176.354 224.828 176.775 224.828 177.175C224.828 177.866 225.008 178.445 225.367 178.915C225.726 179.37 226.326 179.598 227.168 179.598C227.693 179.598 228.19 179.55 228.659 179.453C229.142 179.356 229.653 179.218 230.191 179.039V181.689C229.846 181.855 229.322 182.014 228.618 182.166C227.927 182.331 227.272 182.414 226.65 182.414ZM243.278 182.414C241.58 182.414 240.117 182.076 238.888 181.4C237.659 180.709 236.714 179.729 236.051 178.459C235.402 177.175 235.078 175.643 235.078 173.862C235.078 172.026 235.34 170.225 235.865 168.458C236.403 166.677 237.169 165.069 238.163 163.633C239.157 162.184 240.351 161.031 241.746 160.175C243.154 159.319 244.727 158.891 246.467 158.891C248.551 158.891 250.132 159.361 251.209 160.299C252.285 161.224 252.824 162.501 252.824 164.13C252.824 165.276 252.554 166.332 252.016 167.298C251.492 168.265 250.677 169.107 249.573 169.824C248.482 170.529 247.095 171.081 245.411 171.481C243.74 171.868 241.759 172.061 239.468 172.061H238.681C238.653 172.309 238.626 172.585 238.598 172.889C238.584 173.193 238.577 173.476 238.577 173.738C238.577 175.56 239.019 176.989 239.903 178.024C240.786 179.046 242.111 179.557 243.878 179.557C244.969 179.557 245.997 179.405 246.964 179.101C247.944 178.784 248.965 178.369 250.028 177.859V180.82C249.007 181.289 247.978 181.676 246.943 181.979C245.908 182.269 244.686 182.414 243.278 182.414ZM239.178 169.245H239.675C241.442 169.245 243.064 169.093 244.541 168.789C246.018 168.472 247.205 167.961 248.103 167.257C249 166.539 249.448 165.587 249.448 164.399C249.448 163.626 249.186 162.991 248.662 162.494C248.137 161.997 247.336 161.749 246.26 161.749C245.307 161.749 244.368 162.046 243.444 162.639C242.519 163.219 241.677 164.068 240.917 165.186C240.172 166.304 239.592 167.657 239.178 169.245ZM273.033 182.414C271.529 182.414 270.21 182.304 269.078 182.083C267.946 181.862 266.897 181.524 265.931 181.068V177.61C266.801 178.052 267.822 178.459 268.996 178.832C270.169 179.191 271.529 179.37 273.075 179.37C274.027 179.37 274.938 179.26 275.808 179.039C276.678 178.818 277.451 178.473 278.127 178.004C278.817 177.534 279.356 176.934 279.742 176.202C280.143 175.471 280.343 174.601 280.343 173.593C280.343 172.779 280.163 172.061 279.804 171.44C279.459 170.805 278.907 170.197 278.148 169.617C277.389 169.024 276.395 168.389 275.166 167.712C274.117 167.091 273.171 166.442 272.329 165.766C271.501 165.076 270.845 164.275 270.362 163.364C269.879 162.439 269.637 161.321 269.637 160.01C269.637 158.602 269.9 157.359 270.424 156.282C270.949 155.192 271.667 154.281 272.578 153.549C273.503 152.804 274.559 152.245 275.746 151.872C276.947 151.485 278.217 151.292 279.556 151.292C281.143 151.292 282.524 151.451 283.697 151.768C284.871 152.086 286.003 152.514 287.093 153.052L285.747 156.034C284.974 155.62 284.042 155.247 282.952 154.916C281.875 154.571 280.743 154.398 279.556 154.398C278.686 154.398 277.872 154.515 277.113 154.75C276.367 154.971 275.711 155.309 275.145 155.765C274.579 156.22 274.138 156.786 273.82 157.463C273.503 158.125 273.344 158.898 273.344 159.782C273.344 160.679 273.51 161.425 273.841 162.018C274.186 162.612 274.683 163.15 275.332 163.633C275.994 164.116 276.809 164.641 277.775 165.207C279.004 165.925 280.087 166.643 281.026 167.36C281.965 168.064 282.696 168.886 283.221 169.824C283.746 170.749 284.008 171.916 284.008 173.324C284.008 174.842 283.739 176.175 283.2 177.32C282.676 178.452 281.923 179.398 280.943 180.157C279.963 180.903 278.804 181.469 277.465 181.855C276.126 182.228 274.648 182.414 273.033 182.414ZM287.694 182L292.518 159.306H295.334L294.796 163.695H295.003C295.5 162.978 296.101 162.253 296.805 161.521C297.509 160.776 298.323 160.155 299.248 159.658C300.187 159.147 301.25 158.891 302.437 158.891C304.038 158.891 305.253 159.354 306.081 160.279C306.909 161.204 307.393 162.467 307.531 164.068H307.676C308.228 163.226 308.89 162.412 309.663 161.625C310.436 160.824 311.313 160.168 312.293 159.658C313.287 159.147 314.378 158.891 315.565 158.891C317.318 158.891 318.671 159.368 319.623 160.32C320.576 161.273 321.052 162.653 321.052 164.461C321.052 165.11 321.011 165.725 320.928 166.304C320.859 166.884 320.748 167.478 320.596 168.085L317.656 182H314.177L317.242 167.712C317.366 167.091 317.456 166.553 317.511 166.097C317.58 165.642 317.615 165.207 317.615 164.793C317.615 163.868 317.366 163.136 316.869 162.598C316.372 162.06 315.606 161.79 314.571 161.79C313.839 161.79 313.08 161.99 312.293 162.391C311.506 162.791 310.74 163.399 309.995 164.213C309.263 165.014 308.6 166.028 308.007 167.257C307.413 168.485 306.937 169.928 306.578 171.585L304.362 182H300.925L303.948 167.775C304.073 167.14 304.162 166.594 304.218 166.139C304.287 165.669 304.321 165.269 304.321 164.938C304.321 163.958 304.093 163.191 303.638 162.639C303.182 162.073 302.437 161.79 301.401 161.79C300.67 161.79 299.904 161.984 299.103 162.37C298.316 162.757 297.55 163.364 296.805 164.192C296.059 165.021 295.376 166.077 294.755 167.36C294.133 168.644 293.636 170.19 293.264 171.999L291.152 182H287.694ZM331.675 182.414C330.446 182.414 329.369 182.117 328.444 181.524C327.519 180.93 326.802 180.054 326.291 178.894C325.78 177.734 325.525 176.319 325.525 174.649C325.525 172.979 325.697 171.371 326.042 169.824C326.401 168.278 326.905 166.843 327.554 165.518C328.203 164.192 328.983 163.033 329.894 162.039C330.819 161.045 331.854 160.272 333 159.72C334.146 159.167 335.381 158.891 336.706 158.891C337.728 158.891 338.611 159.085 339.357 159.471C340.116 159.858 340.744 160.368 341.241 161.003C341.752 161.625 342.152 162.287 342.442 162.991H342.649L343.974 159.306H346.604L341.8 182H339.046L339.667 177.61H339.502C338.88 178.438 338.17 179.218 337.369 179.95C336.568 180.682 335.692 181.275 334.739 181.731C333.787 182.186 332.765 182.414 331.675 182.414ZM332.793 179.557C333.856 179.557 334.905 179.17 335.94 178.397C336.989 177.61 337.928 176.554 338.756 175.229C339.598 173.89 340.24 172.385 340.682 170.715C340.903 169.9 341.048 169.155 341.117 168.479C341.2 167.788 341.241 167.146 341.241 166.553C341.241 165.131 340.861 163.985 340.102 163.116C339.357 162.232 338.335 161.79 337.038 161.79C336.113 161.79 335.243 162.025 334.429 162.494C333.614 162.95 332.876 163.592 332.213 164.42C331.564 165.235 331.005 166.187 330.536 167.278C330.066 168.354 329.7 169.528 329.438 170.798C329.19 172.068 329.065 173.372 329.065 174.711C329.065 176.299 329.39 177.507 330.039 178.335C330.688 179.149 331.606 179.557 332.793 179.557ZM348.654 182L353.479 159.306H356.295L355.756 163.695H355.963C356.543 162.908 357.164 162.149 357.827 161.418C358.49 160.672 359.242 160.065 360.084 159.595C360.94 159.126 361.92 158.891 363.024 158.891C363.438 158.891 363.86 158.919 364.287 158.974C364.715 159.016 365.116 159.092 365.488 159.202L364.743 162.287C364.37 162.204 364.004 162.142 363.646 162.101C363.3 162.06 362.942 162.039 362.569 162.039C361.52 162.039 360.546 162.315 359.649 162.867C358.752 163.405 357.944 164.13 357.227 165.041C356.522 165.952 355.922 166.967 355.425 168.085C354.942 169.203 354.576 170.342 354.328 171.502L352.112 182H348.654ZM371.887 182.414C370.382 182.414 369.126 182.055 368.118 181.337C367.124 180.606 366.627 179.356 366.627 177.589C366.627 177.162 366.655 176.699 366.71 176.202C366.765 175.691 366.855 175.167 366.979 174.628L369.65 161.935H366.151L366.482 160.341L370.251 158.891L372.736 154.087H374.786L373.647 159.306H379.486L378.948 161.935H373.129L370.437 174.67C370.341 175.056 370.251 175.471 370.168 175.912C370.099 176.354 370.065 176.775 370.065 177.175C370.065 177.866 370.244 178.445 370.603 178.915C370.962 179.37 371.562 179.598 372.404 179.598C372.929 179.598 373.426 179.55 373.895 179.453C374.378 179.356 374.889 179.218 375.428 179.039V181.689C375.083 181.855 374.558 182.014 373.854 182.166C373.164 182.331 372.508 182.414 371.887 182.414ZM388.514 182.414C386.816 182.414 385.353 182.076 384.124 181.4C382.896 180.709 381.95 179.729 381.288 178.459C380.639 177.175 380.314 175.643 380.314 173.862C380.314 172.026 380.577 170.225 381.101 168.458C381.64 166.677 382.406 165.069 383.4 163.633C384.394 162.184 385.588 161.031 386.982 160.175C388.39 159.319 389.964 158.891 391.703 158.891C393.788 158.891 395.368 159.361 396.445 160.299C397.522 161.224 398.06 162.501 398.06 164.13C398.06 165.276 397.791 166.332 397.252 167.298C396.728 168.265 395.913 169.107 394.809 169.824C393.719 170.529 392.331 171.081 390.647 171.481C388.977 171.868 386.996 172.061 384.704 172.061H383.917C383.89 172.309 383.862 172.585 383.835 172.889C383.821 173.193 383.814 173.476 383.814 173.738C383.814 175.56 384.256 176.989 385.139 178.024C386.023 179.046 387.348 179.557 389.115 179.557C390.205 179.557 391.234 179.405 392.2 179.101C393.18 178.784 394.202 178.369 395.265 177.859V180.82C394.243 181.289 393.215 181.676 392.179 181.979C391.144 182.269 389.922 182.414 388.514 182.414ZM384.414 169.245H384.911C386.678 169.245 388.3 169.093 389.777 168.789C391.254 168.472 392.442 167.961 393.339 167.257C394.236 166.539 394.685 165.587 394.685 164.399C394.685 163.626 394.423 162.991 393.898 162.494C393.373 161.997 392.573 161.749 391.496 161.749C390.544 161.749 389.605 162.046 388.68 162.639C387.755 163.219 386.913 164.068 386.154 165.186C385.408 166.304 384.828 167.657 384.414 169.245ZM400.545 182L405.369 159.306H408.186L407.647 163.695H407.854C408.434 162.908 409.055 162.149 409.718 161.418C410.38 160.672 411.133 160.065 411.975 159.595C412.831 159.126 413.811 158.891 414.915 158.891C415.329 158.891 415.75 158.919 416.178 158.974C416.606 159.016 417.007 159.092 417.379 159.202L416.634 162.287C416.261 162.204 415.895 162.142 415.536 162.101C415.191 162.06 414.832 162.039 414.46 162.039C413.411 162.039 412.437 162.315 411.54 162.867C410.643 163.405 409.835 164.13 409.117 165.041C408.413 165.952 407.813 166.967 407.316 168.085C406.833 169.203 406.467 170.342 406.218 171.502L404.003 182H400.545ZM414.294 187.467C414.819 186.321 415.336 185.134 415.847 183.905C416.358 182.69 416.841 181.496 417.296 180.323C417.752 179.149 418.159 178.066 418.518 177.072H422.245L422.411 177.548C421.955 178.556 421.424 179.633 420.817 180.778C420.223 181.924 419.588 183.07 418.912 184.216C418.249 185.361 417.586 186.445 416.924 187.467H414.294ZM88.9099 240.414C87.4053 240.414 86.0869 240.304 84.955 240.083C83.823 239.862 82.7739 239.524 81.8076 239.068V235.61C82.6772 236.052 83.6988 236.459 84.8721 236.832C86.0455 237.191 87.4053 237.37 88.9513 237.37C89.9039 237.37 90.8149 237.26 91.6846 237.039C92.5543 236.818 93.3274 236.473 94.0038 236.004C94.694 235.534 95.2324 234.934 95.6189 234.202C96.0192 233.471 96.2194 232.601 96.2194 231.593C96.2194 230.779 96.0399 230.061 95.681 229.44C95.3359 228.805 94.7837 228.197 94.0245 227.617C93.2652 227.024 92.2713 226.389 91.0427 225.712C89.9936 225.091 89.048 224.442 88.2059 223.766C87.3776 223.076 86.7219 222.275 86.2388 221.364C85.7556 220.439 85.514 219.321 85.514 218.01C85.514 216.602 85.7763 215.359 86.3009 214.282C86.8255 213.192 87.5433 212.281 88.4544 211.549C89.3793 210.804 90.4353 210.245 91.6225 209.872C92.8235 209.485 94.0935 209.292 95.4325 209.292C97.02 209.292 98.4005 209.451 99.5739 209.768C100.747 210.086 101.879 210.514 102.97 211.052L101.624 214.034C100.851 213.62 99.919 213.247 98.8284 212.916C97.7517 212.571 96.6197 212.398 95.4325 212.398C94.5628 212.398 93.7484 212.515 92.9891 212.75C92.2437 212.971 91.588 213.309 91.022 213.765C90.456 214.22 90.0143 214.786 89.6968 215.463C89.3793 216.125 89.2205 216.898 89.2205 217.782C89.2205 218.679 89.3862 219.425 89.7175 220.018C90.0626 220.612 90.5596 221.15 91.2084 221.633C91.871 222.116 92.6854 222.641 93.6518 223.207C94.8803 223.925 95.964 224.643 96.9027 225.36C97.8414 226.064 98.573 226.886 99.0976 227.824C99.6222 228.749 99.8845 229.916 99.8845 231.324C99.8845 232.842 99.6153 234.175 99.0769 235.32C98.5523 236.452 97.8 237.398 96.8199 238.157C95.8398 238.903 94.6802 239.469 93.3412 239.855C92.0021 240.228 90.5251 240.414 88.9099 240.414ZM101.458 250.146L108.395 217.306H111.211L110.652 221.716H110.797C111.446 220.86 112.157 220.073 112.93 219.355C113.716 218.624 114.572 218.037 115.497 217.595C116.436 217.154 117.457 216.933 118.562 216.933C119.804 216.933 120.888 217.23 121.813 217.823C122.738 218.403 123.456 219.273 123.966 220.432C124.491 221.578 124.753 223.007 124.753 224.719C124.753 226.347 124.587 227.935 124.256 229.481C123.939 231.013 123.469 232.442 122.848 233.767C122.227 235.079 121.461 236.238 120.55 237.246C119.652 238.24 118.624 239.02 117.464 239.586C116.305 240.138 115.028 240.414 113.634 240.414C112.571 240.414 111.653 240.228 110.88 239.855C110.12 239.469 109.479 238.965 108.954 238.343C108.443 237.722 108.036 237.053 107.732 236.335H107.546C107.491 236.846 107.401 237.515 107.277 238.343C107.166 239.158 107.049 239.841 106.925 240.393L104.854 250.146H101.458ZM113.385 237.557C114.351 237.557 115.235 237.315 116.036 236.832C116.85 236.349 117.575 235.693 118.21 234.865C118.859 234.023 119.404 233.049 119.846 231.945C120.301 230.841 120.646 229.667 120.881 228.425C121.116 227.183 121.233 225.919 121.233 224.636C121.233 223.034 120.909 221.826 120.26 221.012C119.625 220.198 118.672 219.79 117.402 219.79C116.74 219.79 116.07 219.956 115.394 220.287C114.717 220.605 114.062 221.06 113.427 221.654C112.792 222.234 112.198 222.924 111.646 223.725C111.094 224.525 110.61 225.409 110.196 226.375C109.796 227.341 109.479 228.363 109.244 229.44C109.009 230.516 108.892 231.621 108.892 232.753C108.892 234.202 109.258 235.369 109.989 236.252C110.735 237.122 111.867 237.557 113.385 237.557ZM137.177 240.414C135.479 240.414 134.016 240.076 132.787 239.4C131.559 238.709 130.613 237.729 129.95 236.459C129.302 235.175 128.977 233.643 128.977 231.862C128.977 230.026 129.24 228.225 129.764 226.458C130.302 224.677 131.069 223.069 132.063 221.633C133.056 220.184 134.251 219.031 135.645 218.175C137.053 217.319 138.627 216.891 140.366 216.891C142.45 216.891 144.031 217.361 145.108 218.299C146.184 219.224 146.723 220.501 146.723 222.13C146.723 223.276 146.454 224.332 145.915 225.298C145.391 226.265 144.576 227.107 143.472 227.824C142.381 228.529 140.994 229.081 139.31 229.481C137.64 229.868 135.659 230.061 133.367 230.061H132.58C132.553 230.309 132.525 230.585 132.497 230.889C132.484 231.193 132.477 231.476 132.477 231.738C132.477 233.56 132.918 234.989 133.802 236.024C134.685 237.046 136.011 237.557 137.778 237.557C138.868 237.557 139.897 237.405 140.863 237.101C141.843 236.784 142.865 236.369 143.927 235.859V238.82C142.906 239.289 141.878 239.676 140.842 239.979C139.807 240.269 138.585 240.414 137.177 240.414ZM133.077 227.245H133.574C135.341 227.245 136.963 227.093 138.44 226.789C139.917 226.472 141.104 225.961 142.002 225.257C142.899 224.539 143.348 223.587 143.348 222.399C143.348 221.626 143.085 220.991 142.561 220.494C142.036 219.997 141.236 219.749 140.159 219.749C139.206 219.749 138.268 220.046 137.343 220.639C136.418 221.219 135.576 222.068 134.817 223.186C134.071 224.304 133.491 225.657 133.077 227.245ZM149.063 240L153.929 217.202H156.973L156.434 221.571H156.476C157 220.853 157.628 220.129 158.36 219.397C159.105 218.651 159.968 218.03 160.948 217.533C161.942 217.023 163.067 216.767 164.323 216.767C165.538 216.767 166.581 216.995 167.45 217.45C168.32 217.892 168.989 218.541 169.459 219.397C169.928 220.239 170.163 221.26 170.163 222.461C170.163 223.096 170.114 223.738 170.018 224.387C169.921 225.036 169.818 225.616 169.707 226.127L166.684 240H163.019L166.084 225.671C166.208 225.05 166.304 224.518 166.373 224.077C166.456 223.635 166.498 223.221 166.498 222.834C166.498 221.868 166.235 221.136 165.711 220.639C165.186 220.142 164.413 219.894 163.392 219.894C162.384 219.894 161.321 220.239 160.203 220.929C159.085 221.619 158.049 222.71 157.097 224.201C156.144 225.678 155.406 227.611 154.881 229.999L152.748 240H149.063ZM180.661 240.414C179.419 240.414 178.335 240.124 177.41 239.544C176.485 238.965 175.767 238.102 175.257 236.956C174.746 235.797 174.49 234.361 174.49 232.649C174.49 231.02 174.656 229.44 174.987 227.907C175.319 226.361 175.795 224.926 176.416 223.6C177.051 222.275 177.824 221.116 178.735 220.122C179.646 219.114 180.682 218.334 181.841 217.782C183.015 217.216 184.298 216.933 185.693 216.933C186.756 216.933 187.667 217.126 188.426 217.513C189.185 217.899 189.813 218.403 190.31 219.024C190.821 219.632 191.221 220.287 191.511 220.991H191.718C191.801 220.356 191.884 219.742 191.967 219.148C192.05 218.541 192.146 217.927 192.257 217.306C192.381 216.684 192.519 216.042 192.671 215.38L194.265 207.78H197.682L190.849 240H188.012L188.571 235.61H188.426C187.763 236.466 187.039 237.26 186.252 237.991C185.479 238.723 184.63 239.31 183.705 239.752C182.78 240.193 181.765 240.414 180.661 240.414ZM181.821 237.557C182.469 237.557 183.125 237.398 183.788 237.08C184.464 236.763 185.12 236.314 185.755 235.734C186.39 235.141 186.983 234.444 187.536 233.643C188.088 232.842 188.571 231.959 188.985 230.993C189.413 230.026 189.744 229.005 189.979 227.928C190.214 226.851 190.331 225.74 190.331 224.594C190.331 223.131 189.979 221.965 189.275 221.095C188.571 220.225 187.446 219.79 185.9 219.79C184.947 219.79 184.064 220.032 183.249 220.515C182.449 220.998 181.724 221.661 181.075 222.503C180.426 223.345 179.874 224.318 179.419 225.423C178.977 226.513 178.632 227.686 178.383 228.943C178.149 230.185 178.031 231.441 178.031 232.711C178.031 234.299 178.349 235.507 178.984 236.335C179.619 237.149 180.564 237.557 181.821 237.557ZM213.895 240L212.591 209.727H216.028L216.691 228.673C216.732 229.805 216.732 230.972 216.691 232.173C216.663 233.36 216.615 234.506 216.546 235.61H216.67C217.07 234.533 217.533 233.326 218.057 231.987C218.596 230.634 219.162 229.343 219.755 228.114L228.369 209.727H231.91L232.842 228.052C232.925 229.322 232.98 230.648 233.007 232.028C233.035 233.408 233.042 234.609 233.028 235.631H233.152C233.401 234.927 233.663 234.188 233.939 233.415C234.215 232.628 234.505 231.828 234.809 231.013C235.113 230.199 235.437 229.384 235.782 228.57L244.003 209.727H247.709L233.981 240H230.419L229.425 219.935C229.384 219.328 229.349 218.693 229.322 218.03C229.294 217.368 229.273 216.712 229.26 216.063C229.26 215.414 229.26 214.807 229.26 214.241H229.135C228.873 215.069 228.562 215.904 228.203 216.746C227.845 217.589 227.368 218.658 226.775 219.956L217.477 240H213.895ZM245.328 240L250.152 217.306H253.611L248.786 240H245.328ZM253.051 213.33C252.499 213.33 252.037 213.171 251.664 212.854C251.305 212.522 251.126 212.06 251.126 211.466C251.126 211.011 251.215 210.583 251.395 210.182C251.588 209.782 251.857 209.465 252.202 209.23C252.561 208.981 252.996 208.857 253.507 208.857C254.114 208.857 254.57 209.016 254.874 209.333C255.177 209.651 255.329 210.093 255.329 210.659C255.329 211.473 255.094 212.122 254.625 212.605C254.156 213.088 253.631 213.33 253.051 213.33ZM261.458 240.414C260.078 240.414 258.863 240.276 257.814 240C256.779 239.724 255.874 239.379 255.101 238.965V235.776C255.833 236.218 256.758 236.632 257.876 237.018C259.008 237.405 260.168 237.598 261.355 237.598C262.528 237.598 263.501 237.439 264.274 237.122C265.061 236.804 265.648 236.369 266.034 235.817C266.435 235.251 266.635 234.596 266.635 233.85C266.635 233.257 266.504 232.746 266.242 232.318C265.993 231.876 265.579 231.448 264.999 231.034C264.433 230.62 263.674 230.144 262.721 229.605C261.658 229.012 260.761 228.411 260.03 227.804C259.298 227.196 258.739 226.534 258.352 225.816C257.98 225.084 257.793 224.235 257.793 223.269C257.793 221.971 258.111 220.846 258.746 219.894C259.381 218.941 260.271 218.203 261.417 217.678C262.576 217.154 263.929 216.891 265.475 216.891C266.842 216.891 268.105 217.05 269.265 217.368C270.424 217.671 271.425 218.023 272.267 218.424L271.149 221.178C270.431 220.833 269.61 220.515 268.685 220.225C267.76 219.935 266.69 219.79 265.475 219.79C264.178 219.79 263.142 220.087 262.369 220.681C261.61 221.274 261.231 222.075 261.231 223.083C261.231 223.607 261.341 224.077 261.562 224.491C261.797 224.905 262.197 225.319 262.763 225.733C263.329 226.133 264.102 226.603 265.082 227.141C266.034 227.693 266.89 228.259 267.65 228.839C268.423 229.405 269.03 230.061 269.472 230.806C269.927 231.538 270.155 232.442 270.155 233.519C270.155 234.996 269.803 236.252 269.099 237.287C268.395 238.309 267.387 239.089 266.076 239.627C264.778 240.152 263.239 240.414 261.458 240.414ZM283.449 240.414C281.751 240.414 280.288 240.076 279.059 239.4C277.83 238.709 276.885 237.729 276.222 236.459C275.573 235.175 275.249 233.643 275.249 231.862C275.249 230.026 275.511 228.225 276.036 226.458C276.574 224.677 277.34 223.069 278.334 221.633C279.328 220.184 280.522 219.031 281.916 218.175C283.325 217.319 284.898 216.891 286.638 216.891C288.722 216.891 290.303 217.361 291.379 218.299C292.456 219.224 292.995 220.501 292.995 222.13C292.995 223.276 292.725 224.332 292.187 225.298C291.662 226.265 290.848 227.107 289.744 227.824C288.653 228.529 287.266 229.081 285.582 229.481C283.911 229.868 281.93 230.061 279.639 230.061H278.852C278.824 230.309 278.797 230.585 278.769 230.889C278.755 231.193 278.748 231.476 278.748 231.738C278.748 233.56 279.19 234.989 280.074 236.024C280.957 237.046 282.282 237.557 284.049 237.557C285.14 237.557 286.168 237.405 287.135 237.101C288.115 236.784 289.136 236.369 290.199 235.859V238.82C289.178 239.289 288.149 239.676 287.114 239.979C286.079 240.269 284.857 240.414 283.449 240.414ZM279.349 227.245H279.846C281.613 227.245 283.235 227.093 284.712 226.789C286.189 226.472 287.376 225.961 288.273 225.257C289.171 224.539 289.619 223.587 289.619 222.399C289.619 221.626 289.357 220.991 288.833 220.494C288.308 219.997 287.507 219.749 286.431 219.749C285.478 219.749 284.539 220.046 283.614 220.639C282.69 221.219 281.847 222.068 281.088 223.186C280.343 224.304 279.763 225.657 279.349 227.245ZM295.479 240L300.304 217.306H303.12L302.582 221.695H302.789C303.369 220.908 303.99 220.149 304.652 219.418C305.315 218.672 306.067 218.065 306.909 217.595C307.765 217.126 308.745 216.891 309.85 216.891C310.264 216.891 310.685 216.919 311.113 216.974C311.541 217.016 311.941 217.092 312.314 217.202L311.568 220.287C311.196 220.204 310.83 220.142 310.471 220.101C310.126 220.06 309.767 220.039 309.394 220.039C308.345 220.039 307.372 220.315 306.475 220.867C305.577 221.405 304.77 222.13 304.052 223.041C303.348 223.952 302.747 224.967 302.25 226.085C301.767 227.203 301.401 228.342 301.153 229.502L298.937 240H295.479ZM325.028 240.58C324.379 240.58 323.875 240.393 323.516 240.021C323.157 239.662 322.978 239.151 322.978 238.488C322.978 237.619 323.219 236.853 323.702 236.19C324.199 235.514 324.972 235.175 326.022 235.175C326.601 235.175 327.071 235.355 327.43 235.714C327.789 236.073 327.968 236.597 327.968 237.287C327.968 238.102 327.726 238.854 327.243 239.544C326.76 240.235 326.022 240.58 325.028 240.58ZM335.671 240.58C335.022 240.58 334.518 240.393 334.159 240.021C333.8 239.662 333.621 239.151 333.621 238.488C333.621 237.619 333.863 236.853 334.346 236.19C334.843 235.514 335.616 235.175 336.665 235.175C337.245 235.175 337.714 235.355 338.073 235.714C338.432 236.073 338.611 236.597 338.611 237.287C338.611 238.102 338.37 238.854 337.887 239.544C337.403 240.235 336.665 240.58 335.671 240.58ZM346.314 240.58C345.665 240.58 345.161 240.393 344.803 240.021C344.444 239.662 344.264 239.151 344.264 238.488C344.264 237.619 344.506 236.853 344.989 236.19C345.486 235.514 346.259 235.175 347.308 235.175C347.888 235.175 348.357 235.355 348.716 235.714C349.075 236.073 349.254 236.597 349.254 237.287C349.254 238.102 349.013 238.854 348.53 239.544C348.047 240.235 347.308 240.58 346.314 240.58Z" fill="black"/>
<defs>
<clipPath id="clip0_316_769">
<rect width="800" height="550" fill="white" transform="translate(-65 355)"/>
</clipPath>
</defs>
</svg>
